<svg width="75.000000" height="65.000000" viewBox="0 0 75 65" fill="none" xmlns="http://www.w3.org/2000/svg" xmlns:xlink="http://www.w3.org/1999/xlink">
	<desc>
			Created with Pixso.
	</desc>
	<defs/>
	<path id="bg_image" d="M48.02 11.89C48.02 11.89 48.02 11.89 48.02 11.9C46.64 18.93 40.71 24.71 34.24 27.21C32.71 27.8 31.11 28.24 29.49 28.39C31.1 28.11 32.63 27.54 34.09 26.84C37.48 25.2 40.4 22.68 42.64 19.65C44.04 17.76 45.03 15.64 45.55 13.43C46.3 10.24 46.08 6.85 44.71 3.69C44.17 2.48 42.64 0.17 42.58 0.13C42.49 0.07 35.06 -0.24 31.48 0.34C27.19 1.04 23 2.35 19.12 4.34C15.49 6.2 12.16 8.69 9.38 11.7C6.6 14.74 4.39 18.3 2.86 22.13C1.2 26.33 0.45 30.72 0.17 35.22C-0.31 42.87 -0.36 62.09 7.29 63.69C9.02 64.05 11.15 63.5 13.76 61.7C14.86 60.94 15.04 59.4 14.25 58.31L13.84 57.75C13.15 56.8 11.84 56.78 10.76 57.23C10.25 57.44 9.69 57.51 9.19 57.27C7.97 56.69 7.57 54.85 7.39 53.63C7.02 51.17 7.05 48.53 7.34 46.06C7.5 44.64 7.8 43.15 8.55 41.92C9.17 40.9 10.03 40.02 11.07 39.47C12.99 38.44 15.65 38.29 17.72 38.92C21.09 39.96 23.45 43.2 23.45 46.75L23.45 60.69C23.45 63.07 25.36 65 27.72 65C30.08 65 31.99 63.07 31.99 60.69L31.99 51.56C31.99 49.98 32.61 48.55 33.62 47.51C34.63 46.48 36.02 45.84 37.56 45.84C40.65 45.84 43.14 48.4 43.14 51.56L43.14 60.66C43.14 63.05 45.06 64.99 47.44 64.99C49.81 64.99 51.73 63.05 51.73 60.66L51.73 59.04C51.73 57.45 52.36 55.86 53.36 54.82C54.37 53.79 55.77 53.15 57.31 53.15C60.4 53.15 62.89 55.88 62.89 59.04L62.89 60.04C62.89 62.77 65.09 64.99 67.8 64.99L70.78 64.99C71.23 64.99 71.63 64.68 71.75 64.25C73.36 58.38 74.33 52.27 74.77 46.21C74.88 44.75 74.96 43.28 74.99 41.8C75 40.47 74.98 39.13 74.93 37.79C74.75 33.58 74.18 29.39 73.09 25.31C71.38 18.98 68.4 12.84 63.23 8.65C59.32 5.49 54.58 3.28 49.67 2.27C49.38 2.21 49.09 2.15 48.8 2.1C47.87 1.92 47.14 2.89 47.46 3.79C48.39 6.44 48.56 9.13 48.02 11.89ZM4.72 22.87Q4.72 22.87 4.72 22.87Q2.61 28.21 2.17 35.35Q1.61 44.3 2.66 51.43Q4.05 60.82 7.58 61.7Q7.63 61.72 7.69 61.73Q9.62 62.13 12.62 60.05Q12.65 60.04 12.66 60.02Q12.72 59.96 12.73 59.86Q12.74 59.8 12.73 59.74Q12.72 59.6 12.63 59.48L12.22 58.92Q12.15 58.82 11.55 59.06Q10.39 59.56 9.33 59.39Q8.82 59.31 8.33 59.08Q8.18 59 8.04 58.92Q5.97 57.71 5.41 53.93Q4.85 50.19 5.35 45.83Q5.71 42.74 6.84 40.88Q7.8 39.29 9.19 38.29Q9.64 37.97 10.13 37.7Q11.65 36.89 13.26 36.62Q15.68 36.21 18.31 37.01Q19.71 37.45 20.89 38.23Q22.36 39.2 23.46 40.71Q24.52 42.17 25.02 43.79Q25.45 45.21 25.45 46.75L25.45 60.69Q25.45 61.18 25.63 61.6Q25.79 62 26.12 62.33Q26.46 62.67 26.87 62.84Q27.26 63 27.72 63Q28.84 63 29.41 62.43Q29.99 61.86 29.99 60.69L29.99 51.56Q29.99 49.91 30.58 48.51Q31.13 47.21 32.19 46.12Q33.32 44.95 34.7 44.38Q36.02 43.84 37.56 43.84Q39.1 43.84 40.41 44.38Q41.8 44.95 42.94 46.12Q44 47.21 44.55 48.52Q45.14 49.91 45.14 51.56L45.14 60.66Q45.14 61.84 45.73 62.42Q46.3 62.99 47.44 62.99Q47.9 62.99 48.3 62.82Q48.71 62.66 49.06 62.31Q49.39 61.98 49.56 61.57Q49.73 61.15 49.73 60.66L49.73 59.04Q49.73 57 50.55 55.37Q51.07 54.31 51.94 53.42Q53.09 52.24 54.5 51.67Q55.8 51.15 57.31 51.15Q58.72 51.15 59.94 51.62Q61.47 52.21 62.72 53.54Q63.81 54.71 64.35 56.09Q64.89 57.46 64.89 59.04L64.89 60.04Q64.89 61.53 65.64 62.27Q66.36 62.99 67.8 62.99L70.02 62.99Q72.13 54.98 72.77 46.05Q72.94 43.84 72.99 41.79Q73.01 39.73 72.93 37.88Q72.66 31.41 71.16 25.83Q68.34 15.36 61.98 10.21Q59.53 8.23 56.78 6.83Q53.47 5.15 49.72 4.32Q50.09 5.66 50.23 7.02Q50.51 9.61 49.98 12.28Q49.8 13.22 49.52 14.13Q48.15 18.72 44.5 22.62Q42.27 25 39.61 26.72Q37.43 28.12 34.96 29.07Q32.2 30.14 29.69 30.38L29.15 26.42Q31 26.1 33.22 25.04Q34.33 24.5 35.36 23.84Q38.59 21.76 41.03 18.46Q43.84 14.67 44.07 10.73Q44.25 7.66 42.88 4.5Q42.05 2.62 41.73 2.08Q41.51 2.07 41.24 2.06Q39.86 2.01 38.33 2Q33.92 1.97 31.8 2.32Q25.42 3.35 20.04 6.12Q15.9 8.24 12.63 11.28Q11.71 12.13 10.86 13.06Q9.56 14.47 8.45 16.01Q6.2 19.16 4.72 22.87ZM41.59 1.87Q41.56 1.86 41.53 1.84L41.58 1.87Q41.58 1.87 41.59 1.87ZM16.09 26.36C15.84 23.83 11.89 24.4 12.41 26.93C12.82 29.23 16.38 28.69 16.09 26.36ZM18.08 26.14Q18.3 27.93 17.52 28.98Q16.7 30.07 14.82 30.36Q12.92 30.65 11.82 29.85Q10.77 29.08 10.44 27.3Q10.23 26.25 10.52 25.36Q10.72 24.71 11.18 24.15Q11.56 23.68 12.05 23.37Q12.75 22.91 13.67 22.77Q14.58 22.63 15.38 22.87Q15.93 23.03 16.44 23.36Q17.06 23.77 17.45 24.34Q17.97 25.1 18.08 26.14Z" fill="#FFC177" fill-opacity="1.000000" fill-rule="evenodd"/>
</svg>
