<svg width="278" height="100" viewBox="0 0 278 100" fill="none" xmlns="http://www.w3.org/2000/svg">
<path d="M137.443 20.2614C112.308 19.5024 88.2831 19.6867 63.516 25.0175C44.841 29.0371 24.3517 35.0019 10.051 48.5915C4.79315 53.5878 -1.79274 63.1336 3.86807 70.3072C12.7822 81.6034 34.7122 82.4001 47.0447 83.0888C105.985 86.38 169.078 77.0595 222.559 51.4587C238.795 43.6867 254.255 33.6743 266.934 20.8273C267.716 20.0352 279.691 8.91401 275.355 5.01125C268.658 -1.01703 244.511 3.40432 239.197 3.97779C205.243 7.64182 171.394 13.9234 138.013 21.0261C106.298 27.7743 74.0162 35.0651 43.8285 47.1932C35.0562 50.7175 16.2054 57.3231 14.4902 69.7684C13.3054 78.3661 21.3379 86.3661 28.0143 89.8218C45.1324 98.6821 67.7384 99.2469 86.4073 98.7636C115.289 98.0159 143.818 92.6827 170.822 82.3818C180.649 78.6332 205.384 69.9874 208.246 56.1117C210.514 45.1181 195.195 37.6712 187.912 35.3075C163.975 27.5393 136.542 28.4786 111.851 30.3298C86.9024 32.2003 61.7244 36.5136 38.2732 45.4521C29.7391 48.705 14.5627 54.3591 10.5731 64.3261C1.37598 87.3027 63.7179 81.4704 69.7515 81.0412C103.714 78.625 137.49 72.8788 170.66 65.3363C197.964 59.1278 227.869 52.4317 252.938 39.18C260.329 35.2728 269.44 27.9011 257.342 23.0298C239.219 15.7322 215.516 16.9529 196.632 17.5701C164.97 18.6048 133.252 22.6479 102.133 28.4338C82.3736 32.1075 59.5265 35.8454 41.6603 46.0555C35.4484 49.6055 31.2567 54.8346 31.8243 62.0967C32.247 67.5044 35.1989 74.234 40.5571 76.5906C55.9998 83.3827 79.6508 79.1071 95.1114 77.6154C119.718 75.2414 143.647 70.5595 168.011 66.7551" stroke="#FFC177" stroke-width="2" stroke-linecap="round"/>
</svg>
