<svg width="842.000000" height="723.000000" viewBox="0 0 842 723" fill="none" xmlns="http://www.w3.org/2000/svg" xmlns:xlink="http://www.w3.org/1999/xlink">
	<desc>
			Created with Pixso.
	</desc>
	<defs/>
	<path id="Vector" d="M378.76 304.6C363.11 310.2 346.95 314.29 330.56 315.86C346.79 313.07 362.4 307.6 377.3 300.87C378.94 300.13 380.58 299.37 382.2 298.6C420.28 280.37 453.13 252.34 478.32 218.59C516.69 167.28 527.74 100.66 501.58 41.11C495.57 27.63 478.32 1.93 477.65 1.54C476.68 0.86 393.15 -2.63 352.84 3.87C304.69 11.63 257.6 26.17 213.99 48.29C173.1 69.04 135.7 96.68 104.5 130.24C73.2 163.99 48.4 203.56 31.25 246.23C12.55 292.97 4.12 341.76 1.02 391.8C-4.41 476.85 -4.99 690.7 80.96 708.45C100.47 712.46 124.39 706.38 153.71 686.34C166.13 677.85 168.05 660.73 159.17 648.6L154.6 642.37C146.88 631.83 132.12 631.61 120.01 636.58C114.29 639.01 107.99 639.78 102.37 637.07C88.61 630.57 84.15 610.2 82.12 596.63C77.95 569.18 78.34 539.89 81.54 512.35C83.38 496.64 86.77 479.96 95.2 466.28C102.08 455.03 111.77 445.24 123.49 439.03C145.1 427.59 174.95 425.94 198.2 433.02C236.09 444.56 262.64 480.54 262.64 520.11L262.64 675.14C262.64 701.57 284.13 723 310.65 723C337.16 723 358.66 701.57 358.66 675.14L358.66 573.54C358.66 555.99 365.63 540.09 376.97 528.54C388.31 517 403.91 509.92 421.25 509.92C455.94 509.92 483.94 538.44 483.94 573.54L483.94 674.75C483.94 701.34 505.57 722.9 532.25 722.9C558.92 722.9 580.55 701.34 580.55 674.75L580.55 656.76C580.55 639.11 587.52 621.36 598.86 609.82C610.2 598.37 625.9 591.2 643.24 591.2C677.93 591.2 705.93 621.65 705.93 656.76L705.93 667.88C705.93 698.26 730.65 722.9 761.13 722.9L794.62 722.9C799.7 722.9 804.15 719.52 805.54 714.65C823.56 649.39 834.51 581.5 839.45 514C840.71 497.8 841.58 481.51 841.97 465.02C842.07 450.18 841.87 435.25 841.29 420.41C839.26 373.57 832.86 326.92 820.56 281.63C801.37 211.12 767.85 142.84 709.81 96.29C665.82 61.09 612.52 36.55 557.39 25.3C554.12 24.64 550.84 24 547.56 23.37C537.12 21.37 528.92 32.19 532.49 42.18C542.95 71.66 544.89 101.63 538.79 132.37C523.28 210.63 456.62 274.93 383.95 302.67C382.22 303.33 380.49 303.97 378.76 304.6ZM34.96 247.71L34.96 247.72Q10.1 309.86 5.01 392.05Q2.44 432.27 3.13 474.6Q4.04 530.39 10.68 574.77Q18.84 629.32 35.02 661.65Q51.99 695.57 77.06 703.32Q79.37 704.04 81.76 704.53Q111.15 710.58 151.45 683.04Q155.13 680.52 157.35 677.07Q159.8 673.26 160.46 668.3Q161.03 664.08 160.19 660.16Q159.14 655.33 155.94 650.97L151.38 644.74Q150 642.85 148.24 641.46Q144.31 638.34 138.47 637.63Q130.39 636.65 121.57 640.27Q112.57 644.08 104.96 642.23Q102.75 641.7 100.66 640.69Q83.46 632.56 78.16 597.23Q72.21 558.01 77.56 511.88Q81.13 481.49 91.79 464.19Q101.08 449 114.48 439.81Q117.92 437.46 121.62 435.49Q138.27 426.67 159.94 425.09Q180.85 423.55 199.37 429.19Q212.67 433.24 223.79 440.59Q237.46 449.64 247.84 463.67Q258.16 477.63 262.81 493.28Q266.64 506.12 266.64 520.11L266.64 675.14Q266.64 684.17 269.82 691.88Q273.04 699.69 279.52 706.15Q285.93 712.53 293.65 715.74Q301.47 719 310.65 719Q319.82 719 327.64 715.74Q335.37 712.53 341.77 706.15Q348.25 699.68 351.48 691.88Q354.66 684.17 354.66 675.14L354.66 573.54Q354.66 559.16 359.8 546.93Q364.66 535.37 374.12 525.74Q383.98 515.7 395.95 510.75Q407.61 505.92 421.25 505.92Q434.82 505.92 446.43 510.69Q458.5 515.65 468.46 525.76Q477.95 535.4 482.82 546.99Q487.94 559.19 487.94 573.54L487.94 674.75Q487.94 683.84 491.15 691.6Q494.39 699.46 500.92 705.96Q507.36 712.39 515.14 715.63Q523.01 718.9 532.25 718.9Q541.48 718.9 549.35 715.63Q557.13 712.39 563.58 705.96Q570.1 699.46 573.34 691.6Q576.55 683.84 576.55 674.75L576.55 656.76Q576.55 651.63 577.25 646.59Q578.45 637.92 581.73 629.54Q586.92 616.27 596.02 607Q606.16 596.76 618.44 591.82Q629.91 587.2 643.24 587.2Q655.21 587.2 665.7 591.14Q679.35 596.26 690.5 608.06Q700.43 618.58 705.29 631.06Q709.93 643.01 709.93 656.76L709.93 667.88Q709.93 678.38 713.63 687.35Q717.38 696.43 724.92 703.95Q732.38 711.38 741.36 715.12Q750.46 718.9 761.13 718.9L794.62 718.9Q797.41 718.9 799.18 717.55Q800.93 716.23 801.68 713.59Q827.74 619.23 835.46 513.69Q837.42 488.59 837.97 465Q838.12 441.69 837.3 420.58Q834.09 346.68 816.7 282.68Q783.45 160.49 707.31 99.41Q679.68 77.3 648.84 61.42Q605.85 39.27 556.62 29.23L546.84 27.3L546.81 27.3Q544.32 26.82 542.23 27.53Q539.8 28.34 537.91 30.75Q536.08 33.08 535.68 35.64Q535.29 38.13 536.26 40.84Q543.08 60.06 545.23 79.78Q548.1 106.02 542.71 133.15Q541.2 140.75 539.11 148.18Q525.27 197.32 485.71 239.21Q463.04 263.23 436.11 280.71Q412.39 296.1 385.38 306.41Q356.69 317.37 330.94 319.84L329.88 311.92Q353.23 307.9 380.48 294.99Q396.15 287.49 410.48 277.98Q447.16 253.65 475.12 216.19Q494.33 190.51 503.54 161.64Q508.08 147.4 510.19 132.38Q513.66 107.67 510.04 84.04Q506.81 62.95 497.93 42.74Q494.16 34.28 484.23 18.55Q477.02 7.12 475.88 5.34Q474.94 5.26 473.42 5.17Q469.43 4.93 463.26 4.7Q447.45 4.11 429.98 4.01Q378.85 3.73 353.48 7.82Q278.97 19.82 215.8 51.85Q166.23 77.01 127.04 113.37Q116.89 122.79 107.44 132.96Q90.49 151.23 76.27 171.43Q51.47 206.65 34.96 247.71ZM475.67 5.02Q475.61 4.99 475.56 4.95L475.66 5.01L475.67 5.02ZM179.33 280.4Q183.12 285.47 183.86 292.81Q184.7 299.49 182.5 304.95Q181.1 308.44 178.46 311.42Q176.44 313.71 174.01 315.39Q169.2 318.71 162.78 319.68Q156.4 320.65 150.85 318.93Q147.98 318.05 145.33 316.45Q141.87 314.36 139.47 311.41Q135.78 306.88 134.59 300.33Q133.03 292.78 135.31 286.64Q136.58 283.21 139.04 280.22Q141.04 277.79 143.51 276Q148.5 272.38 155.38 271.37Q162.17 270.37 167.97 272.32Q170.92 273.32 173.61 275.08Q177.03 277.32 179.33 280.4ZM138.51 299.57C143.16 325.17 183.18 319.16 179.89 293.26C177.08 265.14 132.7 271.44 138.51 299.57Z" fill="#FFC177" fill-opacity="1.000000" fill-rule="evenodd"/>
</svg>
