<svg width="112.000000" height="40.000000" viewBox="0 0 112 40" fill="none" xmlns="http://www.w3.org/2000/svg">
	<path id="Vector 8" d="M54.96 7.13C44.87 6.82 35.23 6.9 25.29 9.04C17.79 10.65 9.57 13.04 3.83 18.5C1.72 20.5 -0.92 24.33 1.35 27.21C4.93 31.74 13.73 32.06 18.68 32.34C42.33 33.66 67.65 29.92 89.12 19.65C95.63 16.53 101.84 12.51 106.92 7.35C107.24 7.04 112.04 2.57 110.3 1.01C107.62 -1.41 97.93 0.36 95.79 0.59C82.17 2.06 68.58 4.58 55.19 7.43C42.46 10.14 29.5 13.07 17.39 17.93C13.87 19.35 6.3 22 5.61 26.99C5.14 30.45 8.36 33.66 11.04 35.04C17.91 38.6 26.98 38.83 34.47 38.63C46.07 38.33 57.51 36.19 68.35 32.06C72.3 30.55 82.22 27.08 83.37 21.51C84.28 17.1 78.13 14.11 75.21 13.16C65.6 10.05 54.59 10.42 44.69 11.17C34.67 11.92 24.57 13.65 15.16 17.24C11.73 18.54 5.64 20.81 4.04 24.81C0.35 34.03 25.37 31.69 27.79 31.52C41.42 30.55 54.98 28.24 68.29 25.22C79.25 22.72 91.25 20.04 101.31 14.72C104.27 13.15 107.93 10.19 103.08 8.24C95.8 5.31 86.29 5.8 78.71 6.05C66 6.46 53.27 8.08 40.79 10.41C32.86 11.88 23.69 13.38 16.52 17.48C14.02 18.9 12.34 21 12.57 23.92C12.74 26.09 13.92 28.79 16.07 29.73C22.27 32.46 31.76 30.74 37.97 30.14C47.84 29.19 57.45 27.31 67.22 " stroke="#FFC177" stroke-opacity="1.000000" stroke-width="1.000000" stroke-linecap="round"/>
</svg>
