<svg width="7" height="11" viewBox="0 0 7 11" fill="none" xmlns="http://www.w3.org/2000/svg">
<path d="M1.10621 10.0028C1.05734 10.0545 1.01914 10.1154 0.993778 10.1818C0.96842 10.2483 0.956403 10.3191 0.958415 10.3903C0.960427 10.4614 0.976428 10.5314 1.0055 10.5964C1.03458 10.6613 1.07616 10.7199 1.12787 10.7687C1.17959 10.8176 1.24042 10.8558 1.3069 10.8812C1.37338 10.9065 1.4442 10.9185 1.51532 10.9165C1.58644 10.9145 1.65647 10.8985 1.72141 10.8694C1.78635 10.8404 1.84492 10.7988 1.89379 10.7471L6.49796 5.87207C6.59304 5.7715 6.64602 5.63835 6.64602 5.49995C6.64602 5.36155 6.59304 5.22839 6.49796 5.12782L1.89379 0.25228C1.84525 0.199434 1.78668 0.156761 1.72151 0.126739C1.65633 0.0967174 1.58584 0.0799461 1.51412 0.0773979C1.44241 0.0748496 1.37091 0.0865779 1.30376 0.111898C1.23662 0.137218 1.17518 0.175627 1.123 0.224894C1.07083 0.274161 1.02896 0.333304 0.999841 0.398887C0.970717 0.46447 0.954916 0.535187 0.953353 0.606929C0.951791 0.678671 0.964499 0.750008 0.990739 0.816798C1.01698 0.883586 1.05623 0.944496 1.10621 0.995987L5.35938 5.49995L1.10621 10.0028Z" fill="#1D1D1D"/>
</svg>
