<svg width="44" height="44" viewBox="0 0 44 44" fill="none" xmlns="http://www.w3.org/2000/svg">
<rect x="1" y="43" width="42" height="42" rx="21" transform="rotate(-90 1 43)" stroke="#FFC177" stroke-width="2"/>
<path d="M21.1386 15.2053C21.2006 15.2703 21.2498 15.3475 21.2833 15.4325C21.3169 15.5174 21.3341 15.6085 21.3341 15.7005C21.3341 15.7925 21.3169 15.8836 21.2833 15.9685C21.2498 16.0535 21.2006 16.1307 21.1386 16.1957L16.2763 21.3001L29.3334 21.3001C29.5102 21.3001 29.6797 21.3739 29.8047 21.5051C29.9298 21.6364 30 21.8144 30 22.0001C30 22.1857 29.9298 22.3638 29.8047 22.495C29.6797 22.6263 29.5102 22.7 29.3334 22.7L16.2763 22.7L21.1386 27.8044C21.2637 27.9358 21.334 28.1139 21.334 28.2997C21.334 28.4854 21.2637 28.6635 21.1386 28.7949C21.0135 28.9262 20.8439 29 20.667 29C20.4901 29 20.3204 28.9262 20.1953 28.7949L14.1955 22.4953C14.1335 22.4303 14.0844 22.3531 14.0508 22.2681C14.0173 22.1831 14 22.0921 14 22.0001C14 21.9081 14.0173 21.817 14.0508 21.732C14.0844 21.6471 14.1335 21.5699 14.1955 21.5049L20.1953 15.2053C20.2572 15.1402 20.3308 15.0886 20.4117 15.0534C20.4926 15.0181 20.5794 15 20.667 15C20.7546 15 20.8413 15.0181 20.9223 15.0534C21.0032 15.0886 21.0767 15.1402 21.1386 15.2053Z" fill="#FFC177"/>
</svg>
