<svg width="44" height="44" viewBox="0 0 44 44" fill="none" xmlns="http://www.w3.org/2000/svg">
<rect x="43" y="1" width="42" height="42" rx="21" transform="rotate(90 43 1)" stroke="#FF7B31" stroke-width="2"/>
<path d="M22.8614 28.7947C22.7994 28.7297 22.7502 28.6525 22.7167 28.5675C22.6831 28.4826 22.6659 28.3915 22.6659 28.2995C22.6659 28.2075 22.6831 28.1164 22.7167 28.0315C22.7502 27.9465 22.7994 27.8693 22.8614 27.8043L27.7237 22.6999L14.6666 22.6999C14.4898 22.6999 14.3203 22.6261 14.1953 22.4949C14.0702 22.3636 14 22.1856 14 21.9999C14 21.8143 14.0702 21.6362 14.1953 21.505C14.3203 21.3737 14.4898 21.3 14.6666 21.3L27.7237 21.3L22.8614 16.1956C22.7363 16.0642 22.666 15.8861 22.666 15.7003C22.666 15.5146 22.7363 15.3365 22.8614 15.2051C22.9865 15.0738 23.1561 15 23.333 15C23.5099 15 23.6796 15.0738 23.8047 15.2051L29.8045 21.5047C29.8665 21.5697 29.9156 21.6469 29.9492 21.7319C29.9827 21.8169 30 21.9079 30 21.9999C30 22.0919 29.9827 22.183 29.9492 22.268C29.9156 22.3529 29.8665 22.4301 29.8045 22.4951L23.8047 28.7947C23.7428 28.8598 23.6692 28.9114 23.5883 28.9466C23.5074 28.9819 23.4206 29 23.333 29C23.2454 29 23.1587 28.9819 23.0777 28.9466C22.9968 28.9114 22.9233 28.8598 22.8614 28.7947Z" fill="#FF7B31"/>
</svg>
