<svg width="25" height="24" viewBox="0 0 25 24" fill="none" xmlns="http://www.w3.org/2000/svg">
<path d="M18.6375 16.4955C18.4806 16.4954 18.3301 16.433 18.2191 16.322C18.1081 16.211 18.0457 16.0605 18.0456 15.9036L18.0449 7.28258L6.77153 18.556C6.66046 18.667 6.50982 18.7294 6.35273 18.7294C6.19565 18.7294 6.04501 18.667 5.93393 18.556C5.82286 18.4449 5.76046 18.2943 5.76046 18.1372C5.76046 17.9801 5.82286 17.8294 5.93393 17.7184L17.2073 6.44498L8.58633 6.44428C8.43297 6.43887 8.28769 6.37414 8.1811 6.26373C8.07452 6.15332 8.01496 6.00584 8.01496 5.85238C8.01496 5.69892 8.07452 5.55145 8.18111 5.44103C8.28769 5.33062 8.43297 5.26589 8.58633 5.26048L18.6375 5.26048C18.7945 5.26057 18.945 5.32297 19.056 5.43395C19.1669 5.54493 19.2293 5.69543 19.2294 5.85238L19.2294 15.9036C19.2293 16.0605 19.1669 16.211 19.056 16.322C18.945 16.433 18.7945 16.4954 18.6375 16.4955Z" fill="white"/>
</svg>
