<svg width="30" height="30" viewBox="0 0 30 30" fill="none" xmlns="http://www.w3.org/2000/svg">
<path fill-rule="evenodd" clip-rule="evenodd" d="M20.845 3.2853C16.9123 2.4062 12.8339 2.4062 8.90123 3.2853L8.47748 3.37905C7.37125 3.62638 6.35524 4.17553 5.54231 4.96551C4.72939 5.75548 4.15137 6.75536 3.87248 7.85405C2.8756 11.7822 2.8756 15.8971 3.87248 19.8253C4.13845 20.8731 4.67673 21.832 5.43277 22.6047C6.1888 23.3774 7.1357 23.9365 8.17748 24.2253L8.75873 27.6953C8.77728 27.8055 8.82504 27.9087 8.89702 27.9941C8.969 28.0796 9.06258 28.1442 9.16801 28.1812C9.27344 28.2182 9.38686 28.2263 9.49647 28.2046C9.60608 28.1829 9.70786 28.1322 9.79123 28.0578L13.205 25.0041C15.7676 25.1604 18.3395 24.9555 20.845 24.3953L21.27 24.3016C22.3762 24.0542 23.3922 23.5051 24.2051 22.7151C25.0181 21.9251 25.5961 20.9252 25.875 19.8265C26.8717 15.8984 26.8717 11.7835 25.875 7.8553C25.596 6.75645 25.0178 5.75647 24.2046 4.96647C23.3915 4.17648 22.3752 3.62742 21.2687 3.3803L20.845 3.2853ZM9.95623 7.7528C9.72391 7.71899 9.48702 7.76575 9.28498 7.8853H9.26748C8.79873 8.1603 8.37623 8.50655 8.01623 8.91405C7.71623 9.2603 7.55373 9.6103 7.51123 9.9478C7.48623 10.1478 7.50373 10.3503 7.56248 10.5416L7.58498 10.5541C7.92248 11.5453 8.36248 12.4991 8.89998 13.3966C9.59304 14.6572 10.4459 15.823 11.4375 16.8653L11.4675 16.9078L11.515 16.9428L11.5437 16.9766L11.5787 17.0065C12.6246 18.0011 13.7933 18.858 15.0562 19.5566C16.5 20.3428 17.3762 20.7141 17.9025 20.869V20.8766C18.0562 20.9241 18.1962 20.9453 18.3375 20.9453C18.7857 20.9122 19.2099 20.73 19.5425 20.4278C19.9487 20.0678 20.2925 19.6441 20.56 19.1728V19.1641C20.8112 18.6891 20.7262 18.2416 20.3637 17.9378C19.6356 17.3016 18.8483 16.7365 18.0125 16.2503C17.4525 15.9466 16.8837 16.1303 16.6537 16.4378L16.1625 17.0578C15.91 17.3653 15.4525 17.3228 15.4525 17.3228L15.44 17.3303C12.0262 16.4591 11.115 13.0028 11.115 13.0028C11.115 13.0028 11.0725 12.5328 11.3887 12.2928L12.0037 11.7978C12.2987 11.5578 12.5037 10.9903 12.1875 10.4303C11.7045 9.59375 11.1405 8.80665 10.5037 8.0803C10.3648 7.90936 10.1701 7.79293 9.95373 7.75155L9.95623 7.7528ZM15.7237 6.2503C15.558 6.2503 15.399 6.31615 15.2818 6.43336C15.1646 6.55057 15.0987 6.70954 15.0987 6.8753C15.0987 7.04106 15.1646 7.20003 15.2818 7.31724C15.399 7.43445 15.558 7.5003 15.7237 7.5003C17.305 7.5003 18.6175 8.01655 19.6562 9.00655C20.19 9.5478 20.6062 10.1891 20.8787 10.8916C21.1525 11.5953 21.2775 12.3465 21.245 13.0991C21.2415 13.1811 21.2543 13.2631 21.2825 13.3402C21.3107 13.4174 21.3539 13.4882 21.4095 13.5487C21.5218 13.6708 21.678 13.7433 21.8437 13.7503C22.0095 13.7573 22.1712 13.6981 22.2934 13.5858C22.4155 13.4735 22.488 13.3173 22.495 13.1516C22.5338 12.2259 22.3801 11.3023 22.0437 10.4391C21.7059 9.57172 21.1937 8.78295 20.5387 8.12155L20.5262 8.10905C19.2375 6.8778 17.6062 6.2503 15.7237 6.2503ZM15.6812 8.3053C15.5155 8.3053 15.3565 8.37115 15.2393 8.48836C15.1221 8.60557 15.0562 8.76454 15.0562 8.9303C15.0562 9.09606 15.1221 9.25503 15.2393 9.37224C15.3565 9.48945 15.5155 9.5553 15.6812 9.5553H15.7025C16.8425 9.63655 17.6725 10.0166 18.2537 10.6403C18.85 11.2828 19.1587 12.0815 19.135 13.069C19.1312 13.2348 19.1934 13.3953 19.3079 13.5152C19.4224 13.6351 19.5798 13.7046 19.7456 13.7084C19.9114 13.7122 20.0718 13.65 20.1918 13.5355C20.3117 13.421 20.3812 13.2636 20.385 13.0978C20.415 11.8015 19.9975 10.6828 19.17 9.7903V9.7878C18.3237 8.8803 17.1625 8.4003 15.765 8.30655L15.7437 8.30405L15.6812 8.3053ZM15.6575 10.3991C15.5738 10.3917 15.4896 10.4012 15.4097 10.4271C15.3298 10.453 15.256 10.4948 15.1926 10.5498C15.1292 10.6049 15.0776 10.6722 15.0408 10.7477C15.004 10.8231 14.9828 10.9053 14.9784 10.9891C14.974 11.073 14.9866 11.1568 15.0154 11.2357C15.0441 11.3146 15.0885 11.3869 15.1458 11.4483C15.2031 11.5096 15.2722 11.5588 15.349 11.5929C15.4257 11.6269 15.5085 11.6452 15.5925 11.6466C16.115 11.6741 16.4487 11.8316 16.6587 12.0428C16.87 12.2553 17.0275 12.5965 17.0562 13.1303C17.0578 13.2142 17.0762 13.2969 17.1104 13.3735C17.1446 13.4501 17.1939 13.519 17.2553 13.5762C17.3167 13.6333 17.389 13.6775 17.4678 13.7062C17.5467 13.7348 17.6305 13.7472 17.7143 13.7428C17.798 13.7383 17.8801 13.7171 17.9554 13.6803C18.0308 13.6434 18.098 13.5918 18.153 13.5285C18.208 13.4652 18.2497 13.3914 18.2756 13.3116C18.3015 13.2318 18.3111 13.1476 18.3037 13.0641C18.2637 12.3141 18.0287 11.6516 17.5475 11.1641C17.0637 10.6766 16.405 10.4391 15.6575 10.3991Z" fill="white"/>
</svg>
