<svg width="237" height="77" viewBox="0 0 237 77" fill="none" xmlns="http://www.w3.org/2000/svg">
<g clip-path="url(#clip0_211_390)">
<path d="M82.2769 43.5716C81.9736 38.6524 81.1488 33.8571 79.3192 29.262C77.6412 25.0674 75.2143 21.1778 72.1523 17.8602C69.0997 14.5616 65.4404 11.8446 61.4399 9.8045C57.1739 7.6309 52.5666 6.2009 47.855 5.43823C43.9114 4.7995 35.7396 5.1427 35.6448 5.20943C35.5784 5.24756 33.891 7.7739 33.3032 9.09903C30.7437 14.9525 31.8244 21.5019 35.5784 26.545C38.0432 29.8626 41.257 32.6178 44.9826 34.41C46.5847 35.1727 48.2722 35.8019 50.0354 36.107C48.2532 35.9354 46.4994 35.4587 44.812 34.8104C37.702 32.0839 31.1797 25.7633 29.6629 18.0699C29.0657 15.0478 29.2553 12.102 30.2791 9.2039C30.554 8.4317 30.8764 7.66903 31.2366 6.92543C30.1085 7.10656 28.9709 7.3163 27.8428 7.54509C22.4486 8.65096 17.2346 11.0629 12.9307 14.5235C7.25221 19.0995 3.97213 25.811 2.09509 32.7417C0.891129 37.1938 0.265449 41.7793 0.0663685 46.3839C0.00948851 47.8425 -0.00947149 49.3106 8.50833e-06 50.7692C0.0379285 52.3899 0.123249 53.9915 0.246488 55.5836C0.729968 62.2188 1.80121 68.8921 3.56449 75.308C3.64033 75.575 3.71617 75.8419 3.79201 76.1184H13.3099V69.6166C13.3099 66.1656 16.0496 63.1721 19.4435 63.1721C21.1404 63.1721 22.6762 63.8776 23.7853 65.0025C24.8945 66.137 25.577 67.8816 25.577 69.6166V76.1184H35.0286V61.437C35.0286 57.986 37.7683 55.1832 41.1622 55.1832C42.8591 55.1832 44.3854 55.8791 45.4945 57.0136C46.6037 58.148 47.2863 59.7115 47.2863 61.437V76.1279H56.6809V56.1842C56.6809 52.2946 59.2785 48.7577 62.9851 47.6232C65.2603 46.9273 68.1802 47.0894 70.2942 48.2143C71.4413 48.8244 72.3893 49.7873 73.0624 50.8932C73.8871 52.2374 74.2189 53.8771 74.3991 55.4215C74.7119 58.129 74.7498 61.008 74.3422 63.706C74.1431 65.0406 73.707 67.0426 72.3609 67.6814C71.811 67.9483 71.1948 67.872 70.6355 67.6337C69.896 67.3286 69.2514 66.7948 68.6731 66.2514L65.2603 70.9322C69.0997 74.164 72.1049 75.1841 74.4559 74.6979C82.8647 72.9533 82.8078 51.9323 82.2769 43.5716ZM68.8248 34.5054C68.3698 37.0222 64.4545 36.4311 64.7769 33.8857C65.0518 31.121 69.3936 31.7407 68.8248 34.5054Z" fill="white"/>
<path d="M76.6742 12.5308C76.4278 13.6939 75.1385 14.5424 73.1287 15.0476C72.8443 15.1239 72.5504 15.1811 72.2281 15.2478C71.8489 15.3146 71.4508 15.3718 71.0431 15.429C67.7441 15.8198 63.298 15.5529 58.539 14.5424C53.4767 13.4651 49.078 11.7682 46.215 9.94731C45.2196 9.30857 44.4043 8.66031 43.8166 8.02157C43.6364 7.82137 43.4753 7.62118 43.3331 7.42098C43.115 7.11591 42.9539 6.81084 42.8496 6.51531C42.6979 6.10538 42.66 5.71451 42.7453 5.33317C42.7738 5.18064 42.8212 5.04718 42.8875 4.91371C43.1245 4.38938 43.589 3.98898 44.0725 3.69344C44.9731 3.15004 46.0159 2.85451 47.0398 2.65431C48.4428 2.37784 49.8743 2.29204 51.2963 2.28251C53.0311 2.26344 54.766 2.38738 56.4913 2.59711C57.5246 2.72104 58.5485 2.89264 59.5723 3.08331C59.5818 2.97844 59.6102 2.86404 59.6292 2.74964C59.9705 1.10038 60.9469 -0.0817569 61.8001 0.0993764C62.6628 0.28051 63.0704 1.75817 62.7197 3.40744C62.7007 3.52184 62.6628 3.64578 62.6438 3.76018C63.753 4.03664 64.9664 4.34171 64.9664 4.37031C66.0092 4.68491 67.0331 5.02811 68.038 5.41897C68.8058 5.71451 69.5358 6.05771 70.2942 6.37231C71.6593 7.00151 72.996 7.72604 74.2 8.62218C75.0437 9.25138 75.8874 9.99498 76.3804 10.9388C76.6458 11.425 76.788 11.9874 76.6742 12.5308Z" fill="white"/>
<path d="M101.919 41.5889H106.934V71.9716H124.359V76.1758H101.919V41.5889Z" fill="white"/>
<path d="M130.141 74.7176C128.416 73.2495 127.553 71.2666 127.553 68.7498C127.553 66.109 128.378 64.0689 130.037 62.6389C131.696 61.1994 134.047 60.4843 137.1 60.4843C140.351 60.4843 143.101 61.1421 145.366 62.4673V61.2279C145.366 59.3499 144.798 57.958 143.669 57.0428C142.541 56.1371 140.759 55.6795 138.332 55.6795C136.891 55.6795 135.488 55.8226 134.123 56.099C132.758 56.3755 131.535 56.7664 130.454 57.2621V53.2009C131.44 52.7433 132.72 52.3715 134.294 52.0855C135.867 51.809 137.394 51.666 138.873 51.666C142.778 51.666 145.67 52.5336 147.556 54.2686C149.443 56.0037 150.381 58.3965 150.381 61.4663V76.1667H145.708V73.4973C144.693 74.6223 143.48 75.4707 142.086 76.0427C140.693 76.6243 138.996 76.9103 136.995 76.9103C134.151 76.9198 131.867 76.1857 130.141 74.7176ZM142.522 72.1722C143.802 71.543 144.75 70.6755 145.376 69.5506V66.3378C143.243 64.9555 140.863 64.2595 138.237 64.2595C136.332 64.2595 134.919 64.6314 133.981 65.375C133.042 66.1186 132.578 67.2435 132.578 68.7688C132.578 71.6765 134.464 73.1255 138.237 73.1255C139.811 73.116 141.243 72.8014 142.522 72.1722Z" fill="white"/>
<path d="M153.339 52.4287H158.6L165.54 69.5029L172.479 52.4287H177.741L167.701 76.1858H163.369L153.339 52.4287Z" fill="white"/>
<path d="M184.121 74.3554C182.499 72.6394 181.684 70.3514 181.684 67.4723V52.4287H186.652V67.2721C186.652 71.0664 188.538 72.9635 192.311 72.9635C195.62 72.9635 198.217 71.4668 200.085 68.4638V52.4287H205.052V76.1858H200.227V72.8205C199.108 74.241 197.791 75.2801 196.264 75.9379C194.738 76.5957 193.089 76.9294 191.316 76.9294C188.15 76.9198 185.751 76.0714 184.121 74.3554Z" fill="white"/>
<path d="M211.461 52.4287H216.286V56.6806C217.272 55.2315 218.656 54.1542 220.448 53.4678C222.24 52.7719 224.306 52.4287 226.676 52.4287V56.3374C224.145 56.3374 221.984 56.7473 220.182 57.5767C218.381 58.4061 217.13 59.7026 216.447 61.4854V76.1858H211.48V52.4287H211.461Z" fill="white"/>
<path d="M231.928 46.9369C231.369 46.3744 231.094 45.688 231.094 44.8586C231.094 44.0387 231.369 43.3428 231.928 42.7803C232.488 42.2179 233.17 41.9414 233.995 41.9414C234.848 41.9414 235.559 42.2179 236.137 42.7803C236.716 43.3428 237 44.0387 237 44.8586C237 45.688 236.716 46.3744 236.137 46.9369C235.559 47.4993 234.848 47.7758 233.995 47.7758C233.18 47.7758 232.488 47.4993 231.928 46.9369ZM231.492 52.4281H236.564V76.1851H231.492V52.4281Z" fill="white"/>
<path d="M198.947 46.3367C199.232 45.9268 199.488 45.4596 199.687 44.9448C199.895 44.411 199.943 43.8008 199.81 43.1049C199.715 42.7426 199.526 42.428 199.26 42.1706C199.004 41.9228 198.71 41.7416 198.416 41.6463C198.132 41.5414 197.857 41.4747 197.611 41.4461C197.554 41.4366 197.506 41.427 197.459 41.427C197.421 41.4175 197.374 41.408 197.326 41.408C197.307 41.408 197.279 41.408 197.26 41.408C197.231 41.408 197.193 41.408 197.156 41.4175C197.127 41.408 197.099 41.408 197.07 41.408C197.032 41.408 196.985 41.4175 196.928 41.427C196.824 41.4556 196.71 41.5033 196.587 41.5796C196.464 41.6654 196.359 41.7702 196.283 41.9037C196.198 42.0467 196.17 42.2278 196.189 42.4185V42.4376L196.198 42.4566C196.331 42.8189 196.464 43.0668 196.615 43.2384C196.757 43.3909 196.909 43.5244 197.061 43.6292C197.156 43.696 197.25 43.7722 197.355 43.8676L197.952 44.2966L198.113 44.3919C197.923 44.859 197.639 45.3262 197.241 45.7647C196.805 46.2604 196.321 46.6799 195.8 47.0231C195.373 47.3472 194.928 47.5474 194.454 47.6332C194.283 47.6618 194.112 47.6809 193.961 47.6809C193.714 47.6809 193.487 47.6428 193.297 47.557C193.022 47.4426 192.909 47.2328 192.918 46.8992C192.965 46.289 193.269 45.7075 193.819 45.1641C194.084 44.9067 194.397 44.6684 194.748 44.4491C194.842 44.3728 194.937 44.3252 195.06 44.2775C195.193 44.2203 195.326 44.1536 195.449 44.0582C195.591 43.9534 195.715 43.8008 195.809 43.572L195.828 43.5053C195.847 43.4767 195.857 43.4481 195.857 43.41C195.923 43.1907 195.904 42.9714 195.809 42.7712C195.705 42.5615 195.534 42.4185 195.307 42.3422C195.174 42.3041 195.042 42.2755 194.909 42.2755C194.786 42.2755 194.672 42.2946 194.568 42.3327C194.368 42.3994 194.179 42.5043 194.018 42.6092L193.714 42.7903C193.269 43.0668 192.842 43.4004 192.472 43.7818C192.084 44.1536 191.742 44.6112 191.487 45.126C191.468 45.1641 191.449 45.2118 191.43 45.2499C191.164 45.4692 190.908 45.6789 190.643 45.8886C190.102 46.3462 189.534 46.7848 188.955 47.2138C188.396 47.6428 187.808 48.0527 187.23 48.4245C186.936 48.6247 186.642 48.7963 186.339 48.9584C186.036 49.13 185.742 49.2825 185.448 49.3969C185.296 49.4636 185.154 49.5113 185.012 49.5494C184.879 49.5876 184.756 49.6066 184.651 49.6066C184.642 49.6066 184.632 49.6066 184.623 49.6066L184.595 49.578L184.614 49.5685C184.595 49.4827 184.595 49.3683 184.614 49.2348C184.632 49.0918 184.661 48.9393 184.699 48.7963C184.784 48.4817 184.898 48.1671 185.021 47.8525C185.277 47.2233 185.58 46.5846 185.912 45.9744C186.235 45.3548 186.585 44.7351 186.955 44.1345C188.301 41.9514 189.752 39.8064 191.287 37.7376L192.539 37.6804L194.833 37.5565L195.316 37.5279L197.127 37.404C197.886 37.3563 198.644 37.2991 199.412 37.2419C200.18 37.1847 200.957 37.1084 201.706 37.0322C202.085 36.994 202.474 36.9464 202.844 36.8987C202.91 36.8987 202.986 36.8892 203.071 36.8796C203.109 36.8701 203.118 36.8701 203.166 36.8701L203.318 36.8415L203.431 36.8129L203.602 36.7938C203.602 36.7938 203.668 36.7748 203.687 36.7652H203.744L203.82 36.7366C203.848 36.7366 203.886 36.7271 203.943 36.708C203.981 36.689 204.019 36.6794 204.104 36.6604C204.228 36.6127 204.322 36.5364 204.379 36.4316C204.436 36.3362 204.455 36.2218 204.436 36.0788C204.408 35.9454 204.341 35.831 204.228 35.7642C204.142 35.707 204.048 35.6784 203.934 35.6784C203.915 35.6784 203.886 35.6784 203.839 35.688L203.82 35.7166C203.782 35.7166 203.735 35.7261 203.706 35.7356C203.687 35.7356 203.678 35.7452 203.659 35.7452H203.526L203.507 35.7642H203.46L203.308 35.7833L203.062 35.8119H202.957C202.891 35.8119 202.815 35.8214 202.768 35.831C202.389 35.85 202.009 35.8691 201.63 35.8786C200.872 35.8977 200.113 35.9168 199.355 35.9263C198.597 35.9454 197.838 35.9644 197.08 35.974L194.786 36.0026L192.624 36.0312C193.231 35.2399 193.828 34.4582 194.444 33.6764C194.89 33.114 195.345 32.561 195.79 32.0081L196.473 31.1692L196.814 30.7592C196.89 30.6734 196.947 30.5781 196.985 30.4732C197.032 30.3493 197.042 30.2063 197.004 30.0442V30.0156L196.994 29.987C196.862 29.5294 196.539 29.2625 196.037 29.2148C195.857 29.2148 195.715 29.253 195.61 29.3197C195.506 29.3864 195.43 29.4627 195.373 29.539L195.023 29.968L194.349 30.826C193.904 31.3884 193.449 31.9604 192.994 32.5515C192.112 33.6955 191.24 34.8681 190.377 36.0598L190.207 36.0693L186.775 36.117L186.197 36.136H185.836C185.789 36.136 185.713 36.1551 185.675 36.2028C185.628 36.2409 185.58 36.279 185.533 36.3458L185.448 36.5269C185.334 36.8892 185.343 37.261 185.476 37.6423L185.505 37.6995C185.533 37.7567 185.562 37.8139 185.599 37.852C185.628 37.8997 185.666 37.9283 185.685 37.9378C185.751 38.0046 185.827 38.0236 185.874 38.0236H185.96L186.813 37.976L189.098 37.8902C188.69 38.4812 188.282 39.0723 187.903 39.6443C187.514 40.2354 187.107 40.855 186.718 41.4938C186.339 42.1134 185.969 42.7522 185.609 43.3814C185.239 44.0106 184.879 44.6684 184.557 45.3262C184.225 45.9935 183.921 46.6894 183.647 47.3949C183.514 47.7572 183.4 48.129 183.315 48.5103C183.267 48.7105 183.229 48.9202 183.201 49.13C183.173 49.3588 183.173 49.6066 183.22 49.8926C183.258 50.0356 183.305 50.1786 183.372 50.3216C183.457 50.5028 183.58 50.6553 183.751 50.7888C183.912 50.9032 184.083 50.9794 184.253 51.0176C184.405 51.0462 184.557 51.0652 184.699 51.0652C184.955 51.0557 185.192 51.008 185.41 50.9318C185.609 50.865 185.799 50.7983 185.988 50.7125C186.348 50.5504 186.69 50.3598 187.012 50.1596C187.334 49.9689 187.647 49.7592 187.95 49.5494C188.557 49.1204 189.145 48.6724 189.714 48.2148C190.169 47.843 190.624 47.4616 191.079 47.0708C191.107 47.7286 191.373 48.3196 191.894 48.844C192.472 49.3111 193.089 49.5494 193.714 49.5494C193.714 49.5494 193.828 49.5494 193.875 49.5494C194.425 49.5494 194.947 49.4541 195.411 49.2539C195.914 49.0442 196.378 48.7963 196.795 48.5008C197.63 47.8906 198.35 47.1661 198.947 46.3367Z" fill="white"/>
<path d="M216.372 46.4413C216.438 46.3173 216.447 46.1839 216.4 46.0409C216.353 45.9074 216.267 45.8025 216.144 45.7358C216.068 45.6977 215.983 45.6786 215.898 45.6786C215.86 45.6786 215.812 45.6881 215.746 45.6977C214.239 46.2029 212.769 46.8226 211.376 47.5376C210.21 48.1382 209.062 48.796 207.934 49.4824C209.28 47.0991 210.57 44.6395 211.774 42.1703C211.859 41.9701 211.878 41.7699 211.831 41.5697C211.783 41.36 211.66 41.1979 211.461 41.0645C211.309 40.9691 211.158 40.9215 210.987 40.9215C210.93 40.9215 210.873 40.931 210.816 40.9405C210.589 40.9882 210.409 41.1026 210.266 41.2837L210.257 41.2933L210.247 41.3123C209.432 42.5517 208.484 43.6957 207.441 44.7157C206.92 45.221 206.361 45.6691 205.782 46.0695C205.214 46.4603 204.616 46.7273 204.038 46.8703C203.924 46.8893 203.811 46.8989 203.725 46.8989C203.592 46.8989 203.517 46.8798 203.479 46.8607C203.441 46.8417 203.422 46.8321 203.422 46.8321C203.422 46.8226 203.403 46.794 203.403 46.7177C203.393 46.2506 203.574 45.7072 203.934 45.0875C204.275 44.4965 204.692 43.9149 205.185 43.3525C205.337 43.1427 205.507 42.9521 205.688 42.7805C206.086 42.4563 206.37 42.0178 206.55 41.4839L206.56 41.4649L206.569 41.4363C206.598 41.3028 206.588 41.1789 206.55 41.0645C206.503 40.8452 206.38 40.6736 206.19 40.5687C206.067 40.502 205.934 40.4639 205.801 40.4639C205.735 40.4639 205.669 40.4734 205.602 40.4925C205.251 40.5783 204.958 40.7308 204.73 40.9501C204.512 41.1503 204.313 41.3791 204.142 41.6174C204 41.7985 203.858 41.9606 203.716 42.1227C203.194 42.7328 202.711 43.4192 202.303 44.1533C202.085 44.5251 201.905 44.935 201.753 45.3735C201.592 45.8216 201.535 46.3364 201.564 46.8989C201.573 47.223 201.687 47.5471 201.896 47.8713C202.104 48.1954 202.389 48.4337 202.739 48.5767C203.118 48.7102 203.479 48.7865 203.811 48.7865C204.019 48.7865 204.228 48.7579 204.417 48.7102C205.166 48.5195 205.839 48.2335 206.436 47.8617C206.749 47.6615 207.062 47.4518 207.356 47.223C206.607 48.6339 205.83 50.0449 205.024 51.4177C204.986 51.4463 204.958 51.4653 204.91 51.4939L204.73 51.6179C203.014 52.7809 201.336 54.0489 199.744 55.3931C198.938 56.0604 198.16 56.7849 197.43 57.5667C197.051 57.9575 196.701 58.3961 196.378 58.8727C196.208 59.1206 196.065 59.4066 195.961 59.7117C195.876 59.8833 195.838 60.1025 195.847 60.379C195.857 60.665 195.961 60.9224 196.189 61.1989C196.568 61.5135 196.956 61.6851 197.336 61.7137C197.393 61.7137 197.459 61.7232 197.516 61.7232C197.819 61.7232 198.104 61.6755 198.369 61.5897C198.976 61.38 199.516 61.094 199.962 60.7317C200.815 60.0263 201.583 59.2445 202.256 58.4151C203.564 56.7659 204.777 55.0308 205.849 53.2385C206.01 52.9716 206.162 52.7047 206.304 52.4473C206.418 52.2471 206.531 52.0564 206.645 51.8657C208.124 50.8361 209.66 49.8637 211.205 48.9771C212.76 48.081 214.4 47.3374 216.097 46.7463C216.21 46.651 216.315 46.5652 216.372 46.4413ZM197.345 59.9691C197.383 59.8547 197.449 59.7498 197.554 59.6259C197.81 59.2445 198.104 58.8632 198.435 58.5009C199.118 57.7764 199.848 57.0709 200.606 56.4036C201.459 55.6695 202.351 54.9545 203.27 54.2681C202.578 55.3454 201.839 56.3941 201.061 57.3951C200.445 58.1863 199.763 58.8918 199.033 59.5115C198.682 59.8165 198.312 60.0263 197.933 60.1407C197.762 60.1883 197.62 60.2169 197.497 60.2169C197.412 60.2169 197.345 60.2074 197.279 60.1788C197.288 60.1311 197.317 60.0549 197.345 59.9691Z" fill="white"/>
<path d="M226.6 40.254C226.487 40.0919 226.373 39.9775 226.269 39.9012C226.212 39.8631 226.155 39.8345 226.098 39.8059L226.089 39.7392H225.927C225.671 39.6629 225.463 39.6152 225.292 39.6152C225.197 39.6152 225.112 39.6152 225.027 39.6152C224.448 39.6152 223.908 39.6724 223.425 39.7868C222.268 40.0061 221.149 40.3684 220.107 40.8546C219.045 41.3122 218.031 41.9509 217.073 42.7803C217.026 42.828 216.988 42.8756 216.931 42.9233C216.817 43.0282 216.713 43.1616 216.609 43.3237C216.504 43.5048 216.438 43.7527 216.419 44.0864V44.115L216.428 44.1436C216.533 44.5535 216.684 44.83 216.893 44.992C217.083 45.135 217.272 45.2304 217.433 45.278C217.481 45.2971 217.528 45.3162 217.557 45.3257L217.575 45.3352L217.594 45.3448C218.192 45.4973 218.76 45.5926 219.291 45.6212C219.301 45.6212 219.32 45.6212 219.386 45.6403L220.182 45.6975C220.903 45.7356 221.538 45.8119 222.078 45.9454C222.031 45.993 221.984 46.0312 221.936 46.0788C221.557 46.3744 221.13 46.6508 220.675 46.8892C219.746 47.3944 218.77 47.8139 217.765 48.1285C217.386 48.2524 217.026 48.3382 216.684 48.3764C216.741 48.3096 216.808 48.2429 216.874 48.1666C216.969 48.0713 217.016 47.9474 217.016 47.8139C217.016 47.6804 216.969 47.566 216.874 47.4421C216.77 47.3372 216.646 47.28 216.504 47.28C216.372 47.28 216.258 47.3277 216.135 47.423L216.059 47.4993C215.86 47.6709 215.67 47.8902 215.509 48.1285L215.49 48.1476L215.48 48.1666C215.414 48.2715 215.376 48.3954 215.338 48.548C215.3 48.7291 215.348 48.9198 215.471 49.1295L215.48 49.1486L215.499 49.1676C215.632 49.3011 215.755 49.3869 215.879 49.4346C215.983 49.4727 216.078 49.4918 216.163 49.5013C216.201 49.5108 216.239 49.5204 216.267 49.5204H216.381C216.94 49.5204 217.471 49.4441 217.945 49.3106C217.993 49.3106 218.04 49.3011 218.068 49.2916C219.178 49.0056 220.258 48.6147 221.282 48.119C221.785 47.8806 222.278 47.5851 222.761 47.2324H222.78L222.827 47.1942C223.083 47.0131 223.33 46.7366 223.576 46.3744C223.633 46.26 223.681 46.117 223.709 45.9549C223.747 45.7738 223.728 45.5831 223.652 45.3448C223.557 45.1636 223.463 45.0206 223.339 44.9253C223.235 44.8395 223.131 44.7632 223.008 44.6965C222.097 44.3628 221.235 44.1817 220.467 44.1531C220.164 44.134 219.851 44.0959 219.528 44.0482C219.121 44.0101 218.742 43.9529 218.4 43.8671C219.111 43.3237 219.927 42.8566 220.818 42.4848C221.766 42.0939 222.761 41.7984 223.756 41.6268C224.126 41.5696 224.477 41.5314 224.818 41.5219C224.904 41.7507 225.065 41.9414 225.311 42.0844C225.444 42.1511 225.558 42.1797 225.662 42.1797H225.719C225.842 42.1606 225.956 42.113 226.032 42.0462L226.117 41.989C226.193 41.9414 226.269 41.8746 226.344 41.7888C226.43 41.703 226.515 41.5886 226.61 41.4456C226.676 41.3503 226.724 41.1978 226.752 40.9594C226.79 40.7116 226.743 40.4828 226.6 40.254Z" fill="white"/>
</g>
<defs>
<clipPath id="clip0_211_390">
<rect width="237" height="77" fill="white"/>
</clipPath>
</defs>
</svg>
