<svg width="66" height="66" viewBox="0 0 66 66" fill="none" xmlns="http://www.w3.org/2000/svg">
<path d="M38.5316 48.3717C44.0316 42.8717 32.0316 40.3717 12.0316 46.8717C7.8649 50.5384 3.33157 58.1717 18.5316 59.3717C37.5316 60.8717 39.5316 58.8717 53.0316 52.8717C66.5316 46.8717 52.0316 43.3717 46.5316 46.8717C41.0316 50.3717 33.0316 53.8717 38.5316 48.3717Z" fill="#88B7B7"/>
<path d="M31.6221 6.60979C32.0011 5.91485 32.999 5.91484 33.378 6.60979L36.1669 11.7235C36.3107 11.9872 36.5655 12.1723 36.8607 12.2276L42.586 13.2998C43.364 13.4455 43.6724 14.3945 43.1286 14.9697L39.1269 19.2023C38.9206 19.4206 38.8232 19.7201 38.8619 20.018L39.6114 25.7943C39.7133 26.5793 38.906 27.1658 38.1909 26.8264L32.9289 24.3286C32.6575 24.1997 32.3426 24.1997 32.0712 24.3286L26.8092 26.8264C26.0941 27.1658 25.2868 26.5793 25.3887 25.7943L26.1382 20.018C26.1769 19.7201 26.0796 19.4206 25.8732 19.2023L21.8716 14.9697C21.3277 14.3945 21.6361 13.4455 22.4141 13.2998L28.1394 12.2276C28.4347 12.1723 28.6894 11.9872 28.8333 11.7235L31.6221 6.60979Z" fill="#FF7B31"/>
<path d="M53.6221 22.6098C54.0011 21.9148 54.999 21.9148 55.378 22.6098L55.6746 23.1537C55.8185 23.4175 56.0732 23.6026 56.3685 23.6579L56.9775 23.7719C57.7556 23.9176 58.0639 24.8666 57.5201 25.4418L57.0944 25.8921C56.8881 26.1104 56.7908 26.4099 56.8294 26.7078L56.9091 27.3222C57.011 28.1072 56.2037 28.6937 55.4886 28.3543L54.9289 28.0886C54.6575 27.9597 54.3426 27.9597 54.0712 28.0886L53.5115 28.3543C52.7964 28.6937 51.9891 28.1072 52.091 27.3222L52.1707 26.7078C52.2094 26.4099 52.1121 26.1104 51.9057 25.8921L51.48 25.4418C50.9362 24.8666 51.2446 23.9176 52.0226 23.7719L52.6316 23.6579C52.9269 23.6026 53.1816 23.4175 53.3255 23.1537L53.6221 22.6098Z" fill="#FF7B31"/>
<path d="M10.6221 22.6098C11.0011 21.9148 11.999 21.9148 12.378 22.6098L12.6746 23.1537C12.8185 23.4175 13.0732 23.6026 13.3685 23.6579L13.9775 23.7719C14.7556 23.9176 15.0639 24.8666 14.5201 25.4418L14.0944 25.8921C13.8881 26.1104 13.7907 26.4099 13.8294 26.7078L13.9091 27.3222C14.011 28.1072 13.2037 28.6937 12.4886 28.3543L11.9289 28.0886C11.6575 27.9597 11.3426 27.9597 11.0712 28.0886L10.5115 28.3543C9.79639 28.6937 8.9891 28.1072 9.09096 27.3222L9.17069 26.7078C9.20935 26.4099 9.11204 26.1104 8.90566 25.8921L8.48 25.4418C7.93618 24.8666 8.24454 23.9176 9.02258 23.7719L9.6316 23.6579C9.92686 23.6026 10.1816 23.4175 10.3255 23.1537L10.6221 22.6098Z" fill="#FF7B31"/>
<path d="M29.8677 9.24825C31.262 6.7485 31.9577 5.5 33 5.5C34.0422 5.5 34.738 6.7485 36.1322 9.24825L36.4897 9.8945C36.8885 10.6068 37.0865 10.9615 37.3945 11.1953C37.7025 11.429 38.0875 11.517 38.8575 11.6902L39.556 11.8498C42.262 12.4603 43.615 12.7683 43.9367 13.8023C44.2585 14.8363 43.3372 15.917 41.492 18.073L41.0135 18.6313C40.491 19.2445 40.2297 19.5498 40.1115 19.9293C39.9932 20.3088 40.0317 20.7185 40.1115 21.5352L40.183 22.2777C40.4635 25.157 40.601 26.5953 39.7595 27.236C38.918 27.8768 37.6502 27.291 35.1175 26.125L34.4602 25.8225C33.7425 25.4925 33.3822 25.3275 33 25.3275C32.6177 25.3275 32.2575 25.4925 31.5397 25.8225L30.8825 26.125C28.3525 27.2938 27.082 27.8768 26.2405 27.236C25.399 26.5953 25.5365 25.157 25.817 22.2805L25.8885 21.5352C25.9682 20.7185 26.0067 20.3088 25.8885 19.9293C25.7702 19.5498 25.509 19.2418 24.9865 18.6313L24.508 18.073C22.6655 15.917 21.7415 14.8363 22.0632 13.8023C22.385 12.7683 23.738 12.4603 26.444 11.8498L27.1425 11.6902C27.9125 11.517 28.2975 11.429 28.6055 11.1953C28.9135 10.9615 29.1115 10.6068 29.5075 9.8945L29.8677 9.24825ZM53.4325 21.1255C54.131 19.8743 54.4775 19.25 55 19.25C55.5225 19.25 55.869 19.8743 56.5675 21.1255L56.7462 21.4472C56.9442 21.8047 57.0432 21.9808 57.1972 22.099C57.3512 22.2145 57.5437 22.2585 57.9287 22.3465L58.278 22.4235C59.631 22.7315 60.3075 22.8828 60.467 23.4025C60.6292 23.9195 60.1672 24.4585 59.246 25.5365L59.0067 25.8143C58.7455 26.1223 58.6135 26.2762 58.5557 26.466C58.4952 26.653 58.5172 26.8593 58.5557 27.269L58.5915 27.6402C58.729 29.0785 58.8005 29.799 58.3797 30.118C57.959 30.437 57.3265 30.1455 56.0587 29.5625L55.7287 29.4112C55.3712 29.2462 55.1897 29.1637 55 29.1637C54.8075 29.1637 54.6287 29.2462 54.2685 29.4112L53.9412 29.5625C52.6762 30.1455 52.0437 30.437 51.6202 30.118C51.1995 29.799 51.2682 29.0785 51.4085 27.6402L51.4442 27.269C51.4827 26.8565 51.5047 26.653 51.4442 26.466C51.3865 26.2735 51.2545 26.1223 50.9932 25.8143L50.754 25.5365C49.8327 24.4585 49.3707 23.9195 49.533 23.4025C49.6925 22.8828 50.369 22.7315 51.722 22.4235L52.0712 22.3465C52.4562 22.2585 52.6487 22.2145 52.8027 22.099C52.9567 21.9808 53.0557 21.802 53.2537 21.4472L53.4325 21.1255ZM9.43249 21.1255C10.1337 19.8743 10.4775 19.25 11 19.25C11.5225 19.25 11.869 19.8743 12.5675 21.1255L12.7462 21.4472C12.9442 21.8047 13.0432 21.9808 13.1972 22.099C13.3512 22.2145 13.5437 22.2585 13.9287 22.3465L14.278 22.4235C15.631 22.7315 16.3075 22.8828 16.4697 23.4025C16.6292 23.9195 16.1672 24.4585 15.246 25.5365L15.0067 25.8143C14.7455 26.1223 14.6135 26.2762 14.5557 26.466C14.4952 26.653 14.5172 26.8593 14.5557 27.269L14.5915 27.6402C14.729 29.0785 14.8005 29.799 14.3797 30.118C13.959 30.437 13.3237 30.1455 12.0587 29.5625L11.7287 29.4112C11.3712 29.2462 11.1897 29.1637 11 29.1637C10.8075 29.1637 10.6287 29.2462 10.2685 29.4112L9.94124 29.5625C8.67624 30.1455 8.04374 30.437 7.62024 30.118C7.19949 29.799 7.26824 29.0785 7.40849 27.6402L7.44424 27.269C7.48274 26.8565 7.50474 26.653 7.44424 26.466C7.38649 26.2735 7.25449 26.1223 6.99324 25.8143L6.75399 25.5365C5.83274 24.4585 5.37074 23.9195 5.53024 23.4025C5.69249 22.8828 6.36899 22.7315 7.72199 22.4235L8.07124 22.3465C8.45624 22.2585 8.64874 22.2145 8.80274 22.099C8.95674 21.9808 9.05574 21.802 9.25374 21.4472L9.43249 21.1255Z" stroke="#1D1D1D" stroke-width="3"/>
<path d="M11 58.8171H17.215C19.9925 58.8171 22.8058 59.1086 25.509 59.6641C30.3353 60.6556 35.3011 60.7655 40.1665 59.9886M37.609 50.9218C37.939 50.8833 38.2552 50.8393 38.5577 50.7926C41.063 50.3938 43.1667 49.0518 45.0917 47.5971L50.0637 43.8433C50.9508 43.1981 52.0194 42.8506 53.1163 42.8506C54.2131 42.8506 55.2817 43.1981 56.1687 43.8433C57.7445 45.0341 58.2285 46.9948 57.2303 48.5953C56.067 50.4598 54.428 52.8441 52.855 54.3016M37.609 50.9218C37.5082 50.9335 37.4074 50.9445 37.3065 50.9548M37.609 50.9218C38.0492 50.8028 38.4527 50.576 38.7832 50.2618C39.1976 49.9033 39.536 49.4655 39.7784 48.9741C40.0209 48.4827 40.1624 47.9477 40.1947 47.4007C40.227 46.8537 40.1494 46.3058 39.9665 45.7893C39.7836 45.2728 39.4991 44.7981 39.1298 44.3933C38.7714 43.9955 38.354 43.6551 37.8923 43.3841C30.2005 38.7943 18.2297 42.2896 11 47.4183M37.609 50.9218C37.5096 50.9435 37.4082 50.9545 37.3065 50.9548M37.3065 50.9548C35.648 51.1215 33.9772 51.1252 32.318 50.9658" stroke="#1D1D1D" stroke-width="3" stroke-linecap="round"/>
</svg>
