<svg width="28" height="25" viewBox="0 0 28 25" fill="none" xmlns="http://www.w3.org/2000/svg">
<path d="M7.71172 8.10079C7.62455 8.01372 7.5554 7.91032 7.50823 7.79651C7.46105 7.6827 7.43676 7.56071 7.43676 7.43751C7.43676 7.3143 7.46105 7.19231 7.50823 7.0785C7.5554 6.96469 7.62455 6.86129 7.71172 6.77422L13.3367 1.14922C13.4238 1.06206 13.5272 0.992909 13.641 0.94573C13.7548 0.898551 13.8768 0.874268 14 0.874268C14.1232 0.874268 14.2452 0.898551 14.359 0.94573C14.4728 0.992909 14.5762 1.06206 14.6633 1.14922L20.2883 6.77422C20.4642 6.95014 20.563 7.18873 20.563 7.43751C20.563 7.68628 20.4642 7.92487 20.2883 8.10079C20.1124 8.2767 19.8738 8.37553 19.625 8.37553C19.3762 8.37553 19.1376 8.2767 18.9617 8.10079L14.9375 4.0754V14C14.9375 14.2486 14.8387 14.4871 14.6629 14.6629C14.4871 14.8387 14.2486 14.9375 14 14.9375C13.7514 14.9375 13.5129 14.8387 13.3371 14.6629C13.1613 14.4871 13.0625 14.2486 13.0625 14V4.0754L9.03828 8.10079C8.95121 8.18795 8.84782 8.2571 8.73401 8.30428C8.6202 8.35146 8.4982 8.37574 8.375 8.37574C8.2518 8.37574 8.1298 8.35146 8.01599 8.30428C7.90218 8.2571 7.79879 8.18795 7.71172 8.10079ZM27.125 14.9375V22.4375C27.125 22.9348 26.9275 23.4117 26.5758 23.7633C26.2242 24.115 25.7473 24.3125 25.25 24.3125H2.75C2.25272 24.3125 1.77581 24.115 1.42417 23.7633C1.07254 23.4117 0.875 22.9348 0.875 22.4375V14.9375C0.875 14.4402 1.07254 13.9633 1.42417 13.6117C1.77581 13.2601 2.25272 13.0625 2.75 13.0625H10.7188C10.8431 13.0625 10.9623 13.1119 11.0502 13.1998C11.1381 13.2877 11.1875 13.4069 11.1875 13.5313V13.9367C11.1875 15.5129 12.4766 16.8418 14.0539 16.8125C14.7904 16.7984 15.492 16.4958 16.0079 15.9699C16.5237 15.444 16.8126 14.7367 16.8125 14V13.5313C16.8125 13.4069 16.8619 13.2877 16.9498 13.1998C17.0377 13.1119 17.1569 13.0625 17.2812 13.0625H25.25C25.7473 13.0625 26.2242 13.2601 26.5758 13.6117C26.9275 13.9633 27.125 14.4402 27.125 14.9375ZM22.4375 18.6875C22.4375 18.4094 22.355 18.1375 22.2005 17.9062C22.046 17.675 21.8264 17.4947 21.5694 17.3883C21.3124 17.2819 21.0297 17.254 20.7569 17.3083C20.4841 17.3625 20.2335 17.4965 20.0369 17.6931C19.8402 17.8898 19.7063 18.1404 19.652 18.4132C19.5978 18.6859 19.6256 18.9687 19.732 19.2257C19.8385 19.4826 20.0187 19.7022 20.25 19.8568C20.4812 20.0113 20.7531 20.0938 21.0312 20.0938C21.4042 20.0938 21.7619 19.9456 22.0256 19.6819C22.2893 19.4182 22.4375 19.0605 22.4375 18.6875Z" fill="#447777"/>
</svg>
