<svg width="108" height="35" viewBox="0 0 108 35" fill="none" xmlns="http://www.w3.org/2000/svg">
<g clip-path="url(#clip0_245_255)">
<path d="M37.4932 19.8053C37.355 17.5693 36.9792 15.3897 36.1454 13.301C35.3808 11.3943 34.2748 9.62635 32.8795 8.11835C31.4884 6.61902 29.8209 5.38402 27.9979 4.45668C26.0539 3.46868 23.9544 2.81868 21.8073 2.47202C20.0102 2.18168 16.2864 2.33768 16.2432 2.36802C16.2129 2.38535 15.444 3.53368 15.1761 4.13602C14.0097 6.79668 14.5022 9.77368 16.2129 12.066C17.3361 13.574 18.8006 14.8263 20.4984 15.641C21.2284 15.9877 21.9974 16.2737 22.8009 16.4123C21.9888 16.3343 21.1896 16.1177 20.4206 15.823C17.1806 14.5837 14.2084 11.7107 13.5172 8.21368C13.2451 6.84002 13.3315 5.50102 13.798 4.18368C13.9233 3.83268 14.0702 3.48602 14.2344 3.14802C13.7203 3.23035 13.2019 3.32568 12.6878 3.42968C10.2297 3.93235 7.85372 5.02868 5.89244 6.60168C3.30476 8.68168 1.81004 11.7323 0.954682 14.8827C0.406042 16.9063 0.120922 18.9907 0.0302022 21.0837C0.00428216 21.7467 -0.00435784 22.414 -3.7843e-05 23.077C0.0172422 23.8137 0.0561222 24.5417 0.112282 25.2653C0.332602 28.2813 0.820762 31.3147 1.62428 34.231C1.65884 34.3523 1.6934 34.4737 1.72796 34.5993H6.06524V31.644C6.06524 30.0753 7.31372 28.7147 8.86028 28.7147C9.63356 28.7147 10.3334 29.0353 10.8388 29.5467C11.3443 30.0623 11.6553 30.8553 11.6553 31.644V34.5993H15.9624V27.926C15.9624 26.3573 17.2108 25.0833 18.7574 25.0833C19.5307 25.0833 20.2262 25.3997 20.7316 25.9153C21.2371 26.431 21.5481 27.1417 21.5481 27.926V34.6037H25.8292V25.5383C25.8292 23.7703 27.0129 22.1627 28.702 21.647C29.7388 21.3307 31.0694 21.4044 32.0328 21.9157C32.5555 22.193 32.9875 22.6307 33.2942 23.1333C33.67 23.7443 33.8212 24.4897 33.9033 25.1917C34.0459 26.4223 34.0632 27.731 33.8774 28.9573C33.7867 29.564 33.588 30.474 32.9745 30.7644C32.724 30.8857 32.4432 30.851 32.1883 30.7427C31.8513 30.604 31.5576 30.3613 31.294 30.1143L29.7388 32.242C31.4884 33.711 32.8579 34.1747 33.9292 33.9537C37.7611 33.1607 37.7352 23.6057 37.4932 19.8053ZM31.3632 15.6843C31.1558 16.8283 29.3716 16.5597 29.5185 15.4027C29.6438 14.146 31.6224 14.4277 31.3632 15.6843Z" fill="#3C5959"/>
<path d="M34.9401 5.69598C34.8278 6.22465 34.2403 6.61032 33.3245 6.83998C33.1949 6.87465 33.0609 6.90065 32.9141 6.93098C32.7413 6.96132 32.5598 6.98731 32.3741 7.01331C30.8707 7.19098 28.8446 7.06965 26.676 6.61031C24.3691 6.12065 22.3646 5.34931 21.06 4.52165C20.6064 4.23131 20.2349 3.93665 19.967 3.64631C19.8849 3.55531 19.8115 3.46432 19.7467 3.37332C19.6473 3.23465 19.5739 3.09598 19.5264 2.96165C19.4573 2.77532 19.44 2.59765 19.4789 2.42431C19.4918 2.35498 19.5134 2.29432 19.5437 2.23365C19.6517 1.99531 19.8633 1.81332 20.0837 1.67898C20.4941 1.43198 20.9693 1.29765 21.4358 1.20665C22.0752 1.08098 22.7275 1.04198 23.3755 1.03765C24.1661 1.02898 24.9566 1.08531 25.7429 1.18065C26.2137 1.23698 26.6803 1.31498 27.1469 1.40165C27.1512 1.35398 27.1641 1.30198 27.1728 1.24998C27.3283 0.500315 27.7733 -0.037018 28.1621 0.0453154C28.5552 0.127649 28.7409 0.799314 28.5811 1.54898C28.5725 1.60098 28.5552 1.65732 28.5465 1.70932C29.052 1.83498 29.6049 1.97365 29.6049 1.98665C30.0801 2.12965 30.5467 2.28565 31.0046 2.46331C31.3545 2.59765 31.6872 2.75365 32.0328 2.89665C32.6549 3.18265 33.264 3.51198 33.8126 3.91931C34.1971 4.20531 34.5816 4.54331 34.8062 4.97231C34.9272 5.19332 34.992 5.44898 34.9401 5.69598Z" fill="#FE763F"/>
<path d="M46.4443 18.904H48.7296V32.7143H56.6698V34.6253H46.4443V18.904Z" fill="#FE763F"/>
<path d="M59.305 33.9623C58.5187 33.295 58.1256 32.3937 58.1256 31.2497C58.1256 30.0493 58.5014 29.122 59.2574 28.472C60.0134 27.8176 61.0848 27.4926 62.4758 27.4926C63.9576 27.4926 65.2104 27.7916 66.2429 28.394V27.8306C66.2429 26.977 65.9837 26.3443 65.4696 25.9283C64.9555 25.5166 64.1434 25.3086 63.0374 25.3086C62.3808 25.3086 61.7414 25.3736 61.1194 25.4993C60.4973 25.625 59.94 25.8026 59.4475 26.028V24.182C59.8968 23.974 60.48 23.805 61.1971 23.675C61.9143 23.5493 62.6098 23.4843 63.2837 23.4843C65.0635 23.4843 66.3811 23.8786 67.2408 24.6673C68.1005 25.456 68.5282 26.5436 68.5282 27.939V34.621H66.3984V33.4076C65.9362 33.919 65.3832 34.3046 64.7482 34.5646C64.1131 34.829 63.3398 34.959 62.4283 34.959C61.1323 34.9633 60.0912 34.6296 59.305 33.9623ZM64.9469 32.8053C65.5301 32.5193 65.9621 32.125 66.2472 31.6136V30.1533C65.2752 29.525 64.1909 29.2086 62.9943 29.2086C62.1259 29.2086 61.4822 29.3776 61.0546 29.7156C60.6269 30.0536 60.4152 30.565 60.4152 31.2583C60.4152 32.58 61.2749 33.2386 62.9943 33.2386C63.7114 33.2343 64.3637 33.0913 64.9469 32.8053Z" fill="#FE763F"/>
<path d="M69.876 23.831H72.2736L75.4358 31.592L78.5981 23.831H80.9957L76.4208 34.6297H74.4466L69.876 23.831Z" fill="#FE763F"/>
<path d="M83.9031 33.7977C83.1643 33.0177 82.7928 31.9777 82.7928 30.669V23.831H85.0565V30.578C85.0565 32.3027 85.9162 33.165 87.6355 33.165C89.1432 33.165 90.3269 32.4847 91.1779 31.1197V23.831H93.4416V34.6297H91.2427V33.1C90.733 33.7457 90.1325 34.218 89.437 34.517C88.7415 34.816 87.9898 34.9677 87.1819 34.9677C85.7391 34.9633 84.6461 34.5777 83.9031 33.7977Z" fill="#FE763F"/>
<path d="M96.3619 23.831H98.5608V25.7637C99.0101 25.105 99.6408 24.6153 100.457 24.3033C101.274 23.987 102.216 23.831 103.296 23.831V25.6077C102.142 25.6077 101.157 25.794 100.336 26.171C99.5155 26.548 98.9453 27.1373 98.6343 27.9477V34.6297H96.3706V23.831H96.3619Z" fill="#FE763F"/>
<path d="M105.689 21.335C105.434 21.0793 105.309 20.7673 105.309 20.3903C105.309 20.0177 105.434 19.7013 105.689 19.4457C105.944 19.19 106.255 19.0643 106.631 19.0643C107.019 19.0643 107.343 19.19 107.607 19.4457C107.87 19.7013 108 20.0177 108 20.3903C108 20.7673 107.87 21.0793 107.607 21.335C107.343 21.5907 107.019 21.7163 106.631 21.7163C106.259 21.7163 105.944 21.5907 105.689 21.335ZM105.49 23.831H107.801V34.6297H105.49V23.831Z" fill="#FE763F"/>
<path d="M90.6595 21.062C90.7891 20.8757 90.9058 20.6634 90.9965 20.4294C91.0915 20.1867 91.1131 19.9094 91.0526 19.593C91.0094 19.4284 90.923 19.2854 90.8021 19.1684C90.6854 19.0557 90.5515 18.9734 90.4176 18.93C90.288 18.8824 90.1627 18.852 90.0504 18.839C90.0245 18.8347 90.0029 18.8304 89.9813 18.8304C89.964 18.826 89.9424 18.8217 89.9208 18.8217C89.9122 18.8217 89.8992 18.8217 89.8906 18.8217C89.8776 18.8217 89.8603 18.8217 89.843 18.826C89.8301 18.8217 89.8171 18.8217 89.8042 18.8217C89.7869 18.8217 89.7653 18.826 89.7394 18.8304C89.6918 18.8434 89.64 18.865 89.5838 18.8997C89.5277 18.9387 89.4802 18.9864 89.4456 19.047C89.4067 19.112 89.3938 19.1944 89.4024 19.281V19.2897L89.4067 19.2984C89.4672 19.463 89.5277 19.5757 89.5968 19.6537C89.6616 19.723 89.7307 19.7837 89.7998 19.8314C89.843 19.8617 89.8862 19.8964 89.9338 19.9397L90.2059 20.1347L90.2794 20.178C90.193 20.3904 90.0634 20.6027 89.8819 20.802C89.6832 21.0274 89.4629 21.218 89.2253 21.374C89.0309 21.5214 88.8278 21.6124 88.6118 21.6514C88.5341 21.6644 88.4563 21.673 88.3872 21.673C88.2749 21.673 88.1712 21.6557 88.0848 21.6167C87.9595 21.5647 87.9077 21.4694 87.912 21.3177C87.9336 21.0404 88.0718 20.776 88.3224 20.529C88.4434 20.412 88.5859 20.3037 88.7458 20.204C88.789 20.1694 88.8322 20.1477 88.8883 20.126C88.9488 20.1 89.0093 20.0697 89.0654 20.0264C89.1302 19.9787 89.1864 19.9094 89.2296 19.8054L89.2382 19.775C89.2469 19.762 89.2512 19.749 89.2512 19.7317C89.2814 19.632 89.2728 19.5324 89.2296 19.4414C89.1821 19.346 89.1043 19.281 89.0006 19.2464C88.9402 19.229 88.8797 19.216 88.8192 19.216C88.763 19.216 88.7112 19.2247 88.6637 19.242C88.573 19.2724 88.4866 19.32 88.4131 19.3677L88.2749 19.45C88.0718 19.5757 87.8774 19.7274 87.709 19.9007C87.5318 20.0697 87.3763 20.2777 87.2597 20.5117C87.251 20.529 87.2424 20.5507 87.2338 20.568C87.1128 20.6677 86.9962 20.763 86.8752 20.8584C86.629 21.0664 86.3698 21.2657 86.1062 21.4607C85.8514 21.6557 85.5835 21.842 85.32 22.011C85.1861 22.102 85.0522 22.18 84.9139 22.2537C84.7757 22.3317 84.6418 22.401 84.5078 22.453C84.4387 22.4834 84.3739 22.505 84.3091 22.5224C84.2486 22.5397 84.1925 22.5484 84.145 22.5484C84.1406 22.5484 84.1363 22.5484 84.132 22.5484L84.119 22.5354L84.1277 22.531C84.119 22.492 84.119 22.44 84.1277 22.3794C84.1363 22.3144 84.1493 22.245 84.1666 22.18C84.2054 22.037 84.2573 21.894 84.3134 21.751C84.4301 21.465 84.5683 21.1747 84.7195 20.8974C84.8664 20.6157 85.0262 20.334 85.1947 20.061C85.8082 19.0687 86.4691 18.0937 87.169 17.1534L87.7392 17.1274L88.7846 17.071L89.005 17.058L89.8301 17.0017C90.1757 16.98 90.5213 16.954 90.8712 16.928C91.2211 16.902 91.5754 16.8674 91.9166 16.8327C92.0894 16.8154 92.2666 16.7937 92.435 16.772C92.4653 16.772 92.4998 16.7677 92.5387 16.7634C92.556 16.759 92.5603 16.759 92.5819 16.759L92.651 16.746L92.7029 16.733L92.7806 16.7244C92.7806 16.7244 92.8109 16.7157 92.8195 16.7114H92.8454L92.88 16.6984C92.893 16.6984 92.9102 16.694 92.9362 16.6854C92.9534 16.6767 92.9707 16.6724 93.0096 16.6637C93.0658 16.642 93.109 16.6074 93.1349 16.5597C93.1608 16.5164 93.1694 16.4644 93.1608 16.3994C93.1478 16.3387 93.1176 16.2867 93.0658 16.2564C93.0269 16.2304 92.9837 16.2174 92.9318 16.2174C92.9232 16.2174 92.9102 16.2174 92.8886 16.2217L92.88 16.2347C92.8627 16.2347 92.8411 16.239 92.8282 16.2434C92.8195 16.2434 92.8152 16.2477 92.8066 16.2477H92.7461L92.7374 16.2564H92.7158L92.6467 16.265L92.5344 16.278H92.4869C92.4566 16.278 92.4221 16.2824 92.4005 16.2867C92.2277 16.2954 92.0549 16.304 91.8821 16.3084C91.5365 16.317 91.1909 16.3257 90.8453 16.33C90.4997 16.3387 90.1541 16.3474 89.8085 16.3517L88.763 16.3647L87.7781 16.3777C88.0546 16.018 88.3267 15.6627 88.6075 15.3074C88.8106 15.0517 89.0179 14.8004 89.221 14.549L89.532 14.1677L89.6875 13.9814C89.7221 13.9424 89.748 13.899 89.7653 13.8514C89.7869 13.795 89.7912 13.73 89.7739 13.6564V13.6434L89.7696 13.6304C89.7091 13.4224 89.5622 13.301 89.3333 13.2794C89.2512 13.2794 89.1864 13.2967 89.1389 13.327C89.0914 13.3574 89.0568 13.392 89.0309 13.4267L88.871 13.6217L88.5643 14.0117C88.3613 14.2674 88.1539 14.5274 87.9466 14.796C87.5448 15.316 87.1474 15.849 86.7542 16.3907L86.6765 16.395L85.1126 16.4167L84.8491 16.4254H84.685C84.6634 16.4254 84.6288 16.434 84.6115 16.4557C84.5899 16.473 84.5683 16.4904 84.5467 16.5207L84.5078 16.603C84.456 16.7677 84.4603 16.9367 84.5208 17.11L84.5338 17.136C84.5467 17.162 84.5597 17.188 84.577 17.2054C84.5899 17.227 84.6072 17.24 84.6158 17.2444C84.6461 17.2747 84.6806 17.2834 84.7022 17.2834H84.7411L85.1299 17.2617L86.171 17.2227C85.9853 17.4914 85.7995 17.76 85.6267 18.02C85.4496 18.2887 85.2638 18.5704 85.0867 18.8607C84.9139 19.1424 84.7454 19.4327 84.5813 19.7187C84.4128 20.0047 84.2486 20.3037 84.1018 20.6027C83.9506 20.906 83.8123 21.2224 83.687 21.543C83.6266 21.7077 83.5747 21.8767 83.5358 22.05C83.5142 22.141 83.497 22.2364 83.484 22.3317C83.471 22.4357 83.471 22.5484 83.4926 22.6784C83.5099 22.7434 83.5315 22.8084 83.5618 22.8734C83.6006 22.9557 83.6568 23.025 83.7346 23.0857C83.808 23.1377 83.8858 23.1724 83.9635 23.1897C84.0326 23.2027 84.1018 23.2114 84.1666 23.2114C84.2832 23.207 84.3912 23.1854 84.4906 23.1507C84.5813 23.1204 84.6677 23.09 84.7541 23.051C84.9182 22.9774 85.0738 22.8907 85.2206 22.7997C85.3675 22.713 85.5101 22.6177 85.6483 22.5224C85.9248 22.3274 86.1926 22.1237 86.4518 21.9157C86.6592 21.7467 86.8666 21.5734 87.0739 21.3957C87.0869 21.6947 87.2078 21.9634 87.4454 22.2017C87.709 22.414 87.9898 22.5224 88.2749 22.5224C88.2749 22.5224 88.3267 22.5224 88.3483 22.5224C88.5989 22.5224 88.8365 22.479 89.0482 22.388C89.2771 22.2927 89.4888 22.18 89.6789 22.0457C90.059 21.7684 90.3874 21.439 90.6595 21.062Z" fill="#3C5959"/>
<path d="M98.5997 21.1097C98.6299 21.0534 98.6343 20.9927 98.6127 20.9277C98.5911 20.867 98.5522 20.8194 98.496 20.789C98.4615 20.7717 98.4226 20.763 98.3837 20.763C98.3664 20.763 98.3448 20.7674 98.3146 20.7717C97.6277 21.0014 96.9581 21.283 96.3231 21.608C95.7917 21.881 95.269 22.18 94.7549 22.492C95.3683 21.4087 95.9559 20.2907 96.5045 19.1684C96.5434 19.0774 96.552 18.9864 96.5304 18.8954C96.5088 18.8 96.4527 18.7264 96.3619 18.6657C96.2928 18.6224 96.2237 18.6007 96.1459 18.6007C96.12 18.6007 96.0941 18.605 96.0682 18.6094C95.9645 18.631 95.8824 18.683 95.8176 18.7654L95.8133 18.7697L95.809 18.7784C95.4375 19.3417 95.0055 19.8617 94.5303 20.3254C94.2927 20.555 94.0378 20.7587 93.7743 20.9407C93.5151 21.1184 93.2429 21.2397 92.9794 21.3047C92.9275 21.3134 92.8757 21.3177 92.8368 21.3177C92.7763 21.3177 92.7418 21.309 92.7245 21.3004C92.7072 21.2917 92.6986 21.2874 92.6986 21.2874C92.6986 21.283 92.6899 21.27 92.6899 21.2354C92.6856 21.023 92.7677 20.776 92.9319 20.4944C93.0874 20.2257 93.2775 19.9614 93.5021 19.7057C93.5712 19.6104 93.649 19.5237 93.7311 19.4457C93.9125 19.2984 94.0421 19.099 94.1242 18.8564L94.1285 18.8477L94.1328 18.8347C94.1458 18.774 94.1415 18.7177 94.1242 18.6657C94.1026 18.566 94.0464 18.488 93.96 18.4404C93.9039 18.41 93.8434 18.3927 93.7829 18.3927C93.7527 18.3927 93.7224 18.397 93.6922 18.4057C93.5323 18.4447 93.3984 18.514 93.2947 18.6137C93.1954 18.7047 93.1047 18.8087 93.0269 18.917C92.9621 18.9994 92.8973 19.073 92.8325 19.1467C92.5949 19.424 92.3746 19.736 92.1888 20.0697C92.0895 20.2387 92.0074 20.425 91.9383 20.6244C91.8648 20.828 91.8389 21.062 91.8519 21.3177C91.8562 21.465 91.908 21.6124 92.0031 21.7597C92.0981 21.907 92.2277 22.0154 92.3875 22.0804C92.5603 22.141 92.7245 22.1757 92.8757 22.1757C92.9707 22.1757 93.0658 22.1627 93.1522 22.141C93.4935 22.0544 93.8002 21.9244 94.0723 21.7554C94.2149 21.6644 94.3575 21.569 94.4914 21.465C94.1501 22.1064 93.7959 22.7477 93.4287 23.3717C93.4114 23.3847 93.3984 23.3934 93.3768 23.4064L93.2947 23.4627C92.5128 23.9914 91.7482 24.5677 91.0224 25.1787C90.6552 25.482 90.301 25.8114 89.9683 26.1667C89.7955 26.3444 89.6357 26.5437 89.4888 26.7604C89.4111 26.873 89.3463 27.003 89.2987 27.1417C89.2599 27.2197 89.2426 27.3194 89.2469 27.445C89.2512 27.575 89.2987 27.692 89.4024 27.8177C89.5752 27.9607 89.7523 28.0387 89.9251 28.0517C89.9511 28.0517 89.9813 28.056 90.0072 28.056C90.1455 28.056 90.2751 28.0344 90.396 27.9954C90.6725 27.9 90.9187 27.77 91.1218 27.6054C91.5106 27.2847 91.8605 26.9294 92.1672 26.5524C92.7634 25.8027 93.3163 25.014 93.8045 24.1994C93.8779 24.078 93.9471 23.9567 94.0119 23.8397C94.0637 23.7487 94.1155 23.662 94.1674 23.5754C94.8413 23.1074 95.5411 22.6654 96.2453 22.2624C96.9538 21.855 97.7011 21.517 98.4744 21.2484C98.5263 21.205 98.5738 21.166 98.5997 21.1097ZM89.9295 27.2587C89.9467 27.2067 89.977 27.159 90.0245 27.1027C90.1411 26.9294 90.2751 26.756 90.4263 26.5914C90.7373 26.262 91.0699 25.9414 91.4155 25.638C91.8043 25.3044 92.2104 24.9794 92.6295 24.6674C92.3141 25.157 91.9771 25.6337 91.6229 26.0887C91.3421 26.4484 91.0311 26.769 90.6984 27.0507C90.5386 27.1894 90.3701 27.2847 90.1973 27.3367C90.1195 27.3584 90.0547 27.3714 89.9986 27.3714C89.9597 27.3714 89.9295 27.367 89.8992 27.354C89.9035 27.3324 89.9165 27.2977 89.9295 27.2587Z" fill="#3C5959"/>
<path d="M103.261 18.2974C103.209 18.2237 103.157 18.1717 103.11 18.137C103.084 18.1197 103.058 18.1067 103.032 18.0937L103.028 18.0634H102.954C102.838 18.0287 102.743 18.007 102.665 18.007C102.622 18.007 102.583 18.007 102.544 18.007C102.28 18.007 102.034 18.033 101.814 18.085C101.287 18.1847 100.777 18.3494 100.302 18.5704C99.8179 18.7784 99.3557 19.0687 98.9194 19.4457C98.8978 19.4674 98.8805 19.489 98.8546 19.5107C98.8027 19.5584 98.7552 19.619 98.7077 19.6927C98.6602 19.775 98.6299 19.8877 98.6213 20.0394V20.0524L98.6256 20.0654C98.6731 20.2517 98.7422 20.3774 98.8373 20.451C98.9237 20.516 99.0101 20.5594 99.0835 20.581C99.1051 20.5897 99.1267 20.5984 99.1397 20.6027L99.1483 20.607L99.157 20.6114C99.4291 20.6807 99.6883 20.724 99.9302 20.737C99.9346 20.737 99.9432 20.737 99.9734 20.7457L100.336 20.7717C100.665 20.789 100.954 20.8237 101.2 20.8844C101.179 20.906 101.157 20.9234 101.136 20.945C100.963 21.0794 100.768 21.205 100.561 21.3134C100.138 21.543 99.6926 21.7337 99.2347 21.8767C99.0619 21.933 98.8978 21.972 98.7422 21.9894C98.7682 21.959 98.7984 21.9287 98.8286 21.894C98.8718 21.8507 98.8934 21.7944 98.8934 21.7337C98.8934 21.673 98.8718 21.621 98.8286 21.5647C98.7811 21.517 98.725 21.491 98.6602 21.491C98.5997 21.491 98.5478 21.5127 98.4917 21.556L98.4571 21.5907C98.3664 21.6687 98.28 21.7684 98.2066 21.8767L98.1979 21.8854L98.1936 21.894C98.1634 21.9417 98.1461 21.998 98.1288 22.0674C98.1115 22.1497 98.1331 22.2364 98.1893 22.3317L98.1936 22.3404L98.2022 22.349C98.2627 22.4097 98.3189 22.4487 98.375 22.4704C98.4226 22.4877 98.4658 22.4964 98.5046 22.5007C98.5219 22.505 98.5392 22.5094 98.5522 22.5094H98.604C98.8589 22.5094 99.1008 22.4747 99.3168 22.414C99.3384 22.414 99.36 22.4097 99.373 22.4054C99.8784 22.2754 100.371 22.0977 100.837 21.8724C101.066 21.764 101.291 21.6297 101.511 21.4694H101.52L101.542 21.452C101.658 21.3697 101.771 21.244 101.883 21.0794C101.909 21.0274 101.93 20.9624 101.943 20.8887C101.961 20.8064 101.952 20.7197 101.917 20.6114C101.874 20.529 101.831 20.464 101.775 20.4207C101.727 20.3817 101.68 20.347 101.624 20.3167C101.209 20.165 100.816 20.0827 100.466 20.0697C100.328 20.061 100.185 20.0437 100.038 20.022C99.8525 20.0047 99.6797 19.9787 99.5242 19.9397C99.8482 19.6927 100.22 19.4804 100.626 19.3114C101.058 19.1337 101.511 18.9994 101.965 18.9214C102.133 18.8954 102.293 18.878 102.449 18.8737C102.488 18.9777 102.561 19.0644 102.673 19.1294C102.734 19.1597 102.786 19.1727 102.833 19.1727H102.859C102.915 19.164 102.967 19.1424 103.002 19.112L103.041 19.086C103.075 19.0644 103.11 19.034 103.144 18.995C103.183 18.956 103.222 18.904 103.265 18.839C103.296 18.7957 103.317 18.7264 103.33 18.618C103.347 18.5054 103.326 18.4014 103.261 18.2974Z" fill="#3C5959"/>
</g>
<defs>
<clipPath id="clip0_245_255">
<rect width="108" height="35" fill="white"/>
</clipPath>
</defs>
</svg>
