<svg width="66" height="66" viewBox="0 0 66 66" fill="none" xmlns="http://www.w3.org/2000/svg">
<path d="M20.5 25C15.5 20 20.5 8.5 29.5 8.5C40.5 8.5 38 16 38 21.5C38 27 31 29 37 32C43 35 50.5 46 48 51.5C45.5 57 31.5 52 27.5 51.5C23.5 51 6.99997 62 6.99997 47.5C6.99997 33 25.5 30 20.5 25Z" fill="#88B7B7"/>
<path d="M44.5489 36.9271C44.8483 36.0057 46.1517 36.0057 46.4511 36.9271L48.3064 42.6373C48.4403 43.0493 48.8243 43.3283 49.2575 43.3283H55.2616C56.2303 43.3283 56.6331 44.5679 55.8494 45.1373L50.9919 48.6664C50.6415 48.9211 50.4948 49.3724 50.6287 49.7844L52.484 55.4947C52.7834 56.416 51.7289 57.1821 50.9452 56.6127L46.0878 53.0836C45.7373 52.8289 45.2627 52.8289 44.9122 53.0836L40.0548 56.6127C39.2711 57.1821 38.2166 56.416 38.516 55.4947L40.3713 49.7844C40.5052 49.3724 40.3585 48.9211 40.0081 48.6664L35.1506 45.1373C34.3669 44.5679 34.7697 43.3283 35.7384 43.3283H41.7425C42.1757 43.3283 42.5597 43.0493 42.6936 42.6373L44.5489 36.9271Z" fill="#FF7B31"/>
<path d="M29.25 30C32.1674 30 34.9653 28.8411 37.0282 26.7782C39.0911 24.7153 40.25 21.9174 40.25 19C40.25 16.0826 39.0911 13.2847 37.0282 11.2218C34.9653 9.15892 32.1674 8 29.25 8C26.3326 8 23.5347 9.15892 21.4718 11.2218C19.4089 13.2847 18.25 16.0826 18.25 19C18.25 21.9174 19.4089 24.7153 21.4718 26.7782C23.5347 28.8411 26.3326 30 29.25 30Z" stroke="#1D1D1D" stroke-width="3" stroke-linecap="round" stroke-linejoin="round"/>
<path d="M10 52.0001V49.2501C9.99933 46.0022 10.8204 42.8071 12.3868 39.9619C13.9532 37.1168 16.214 34.7143 18.9588 32.9779C21.7035 31.2416 24.8429 30.228 28.0848 30.0314C31.3267 29.8348 34.5656 30.4616 37.5 31.8536M41.9963 42.1413L44.8535 36.0831C44.9308 35.9099 45.0566 35.7628 45.2157 35.6596C45.3748 35.5564 45.5604 35.5015 45.75 35.5015C45.9396 35.5015 46.1252 35.5564 46.2843 35.6596C46.4434 35.7628 46.5692 35.9099 46.6465 36.0831L49.5065 42.1413L55.8947 43.1203C56.7142 43.2441 57.0387 44.3001 56.4447 44.9051L51.8247 49.6158L52.9137 56.2736C53.054 57.1288 52.1987 57.7806 51.4645 57.3763L45.75 54.2331L40.0355 57.3763C39.3012 57.7806 38.446 57.1288 38.5863 56.2763L39.6753 49.6158L35.0553 44.9051C34.4613 44.3001 34.7857 43.2441 35.6052 43.1176L41.9963 42.1413Z" stroke="#1D1D1D" stroke-width="3" stroke-linecap="round" stroke-linejoin="round"/>
</svg>
