<svg width="66" height="66" viewBox="0 0 66 66" fill="none" xmlns="http://www.w3.org/2000/svg">
<ellipse cx="32.5" cy="31.5" rx="20.5" ry="25.5" fill="#88B7B7"/>
<ellipse cx="23" cy="25" rx="6" ry="5" fill="#FF7B31"/>
<path d="M42.3225 42.3222C43.9313 40.708 44.1485 38.3155 42.8065 36.9707C41.4645 35.6287 39.0693 35.846 37.4578 37.4575C35.849 39.069 33.4538 39.2862 32.1118 37.9442C30.7698 36.6022 30.987 34.207 32.5985 32.5982M32.5985 32.5982L31.625 31.6247M32.5985 32.5982C33.5088 31.6852 34.6693 31.2232 35.75 31.2315M43.2932 43.293L42.3197 42.3195C41.2197 43.4222 39.7485 43.8732 38.5 43.6147M23.6693 29.917C24.757 29.917 25.8204 29.5944 26.7249 28.9901C27.6294 28.3857 28.3343 27.5267 28.7506 26.5218C29.1669 25.5168 29.2758 24.4109 29.0636 23.344C28.8514 22.2771 28.3275 21.2971 27.5583 20.5279C26.7891 19.7587 25.8091 19.2349 24.7422 19.0227C23.6754 18.8105 22.5695 18.9194 21.5645 19.3357C20.5595 19.7519 19.7005 20.4569 19.0962 21.3614C18.4918 22.2658 18.1693 23.3292 18.1693 24.417" stroke="black" stroke-width="4" stroke-linecap="round"/>
<path d="M44.3768 13.0016C40.1253 8.75288 38.0023 6.62713 35.244 5.83788C32.4858 5.04588 29.557 5.72238 23.7023 7.07538L20.3253 7.85363C15.3973 8.98938 12.9333 9.55863 11.2448 11.2444C9.559 12.9329 8.98975 15.3969 7.854 20.3249L7.073 23.7019C5.72275 29.5594 5.04625 32.4854 5.8355 35.2436C6.6275 38.0019 8.75325 40.1249 13.002 44.3736L18.0345 49.4061C25.432 56.8064 29.128 60.4996 33.7205 60.4996C38.3158 60.4996 42.0118 56.8036 49.4065 49.4089C56.804 42.0114 60.5 38.3154 60.5 33.7201C60.5 30.0296 58.113 26.9166 53.339 21.9996" stroke="black" stroke-width="4" stroke-linecap="round"/>
</svg>
