<svg width="66" height="66" viewBox="0 0 66 66" fill="none" xmlns="http://www.w3.org/2000/svg">
<path d="M15.4999 28.9999C17.8999 24.5999 14.4999 15.4999 12.4999 11.4999C18.4999 6.9999 18.4999 18.9999 31.9999 11.9999C45.4999 4.99992 47.4999 5.99992 46.9999 11.4999C46.4999 16.9999 52.9999 25.9999 57.9999 33.9999C62.9999 41.9999 48.4999 41.4999 41.9999 45.9999C35.4999 50.4999 34.9999 61.4999 29.9999 56.4999C24.9999 51.4999 22.4999 47.4999 12.4999 45.9999C2.49994 44.4999 12.4999 34.4999 15.4999 28.9999Z" fill="#FF7B31"/>
<path d="M48.7107 21.9999C48.7767 22.4344 48.8757 22.7974 49.0407 23.1357C49.4477 23.9909 50.1957 24.6152 51.689 25.8637L53.0502 26.9994C58.3055 31.3939 60.9345 33.5912 60.4422 36.1899C59.9472 38.7914 56.6637 40.0729 50.0885 42.6359L48.389 43.2987C46.519 44.0274 45.584 44.3932 44.8855 45.0779C44.1842 45.7627 43.7992 46.6894 43.0237 48.5457L42.317 50.2342C39.589 56.7654 38.225 60.0324 35.6235 60.4559C33.022 60.8822 30.9072 58.1844 26.675 52.7889L25.5805 51.3947C24.376 49.8602 23.7765 49.0957 22.935 48.6612C22.0935 48.2294 21.1062 48.1772 19.1345 48.0754L17.336 47.9847C10.395 47.6272 6.9245 47.4484 5.808 45.1109C4.69425 42.7734 6.6715 39.8254 10.6287 33.9267L11.6545 32.4004C12.7765 30.7229 13.3402 29.8869 13.5217 28.9354C13.7005 27.9812 13.4777 27.0214 13.035 25.1047L12.6307 23.3584C11.066 16.6072 10.285 13.2274 12.199 11.3574C14.1102 9.4874 17.4515 10.3619 24.1285 12.1137L25.8555 12.5647C27.753 13.0624 28.7017 13.3099 29.656 13.1559C30.6075 12.9992 31.4572 12.4574 33.154 11.3739L34.7022 10.3839C40.678 6.56965 43.6672 4.6639 45.9635 5.8464C47.388 6.5779 47.9627 8.20315 48.2322 10.9972" stroke="black" stroke-width="4" stroke-linecap="round"/>
<path d="M53.7075 50.7922C53.5187 50.5895 53.291 50.427 53.038 50.3143C52.785 50.2016 52.5119 50.1409 52.2349 50.1361C51.958 50.1312 51.6829 50.1821 51.4261 50.2859C51.1693 50.3896 50.936 50.544 50.7401 50.7398C50.5443 50.9357 50.3899 51.169 50.2862 51.4258C50.1824 51.6826 50.1315 51.9577 50.1364 52.2346C50.1413 52.5116 50.2019 52.7847 50.3146 53.0377C50.4273 53.2907 50.5899 53.5184 50.7925 53.7072L53.7075 50.7922ZM56.2925 59.2072C56.4813 59.4098 56.709 59.5724 56.962 59.6851C57.215 59.7978 57.4881 59.8584 57.7651 59.8633C58.042 59.8682 58.3171 59.8173 58.5739 59.7135C58.8307 59.6098 59.064 59.4554 59.2598 59.2595C59.4557 59.0637 59.6101 58.8304 59.7138 58.5736C59.8176 58.3168 59.8685 58.0417 59.8636 57.7648C59.8587 57.4878 59.7981 57.2147 59.6854 56.9617C59.5727 56.7087 59.4101 56.481 59.2075 56.2922L56.2925 59.2072ZM50.7925 53.7072L56.2925 59.2072L59.2075 56.2922L53.7075 50.7922L50.7925 53.7072Z" fill="black"/>
</svg>
