<svg width="66" height="66" viewBox="0 0 66 66" fill="none" xmlns="http://www.w3.org/2000/svg">
<path d="M16.6002 7.92C24.6002 7.92 26.1002 4.92 48.1002 6.42C57.6002 15.92 48.6002 36.42 42.6002 42.42C36.6002 48.42 22.6002 44.92 15.1002 37.42C7.6002 29.92 8.6002 7.92 16.6002 7.92Z" fill="#88B7B7"/>
<path d="M33 44V52.25" stroke="#1D1D1D" stroke-width="3" stroke-linecap="round"/>
<path d="M42.625 60.5H23.375L24.31 55.836C24.4346 55.2128 24.7711 54.652 25.2624 54.2489C25.7537 53.8459 26.3695 53.6254 27.005 53.625H38.995C39.6305 53.6254 40.2463 53.8459 40.7376 54.2489C41.2289 54.652 41.5654 55.2128 41.69 55.836L42.625 60.5Z" stroke="#1D1D1D" stroke-width="3" stroke-linecap="round" stroke-linejoin="round"/>
<path d="M31.6221 13.6098C32.0011 12.9148 32.9989 12.9148 33.3779 13.6098L35.5437 17.5811C35.6876 17.8448 35.9423 18.0299 36.2376 18.0852L40.6838 18.9178C41.4618 19.0635 41.7702 20.0125 41.2264 20.5877L38.1187 23.8747C37.9124 24.093 37.8151 24.3925 37.8537 24.6904L38.4358 29.1763C38.5377 29.9613 37.7304 30.5478 37.0153 30.2084L32.9288 28.2686C32.6575 28.1397 32.3425 28.1397 32.0712 28.2686L27.9847 30.2084C27.2696 30.5478 26.4623 29.9613 26.5642 29.1763L27.1463 24.6904C27.1849 24.3925 27.0876 24.093 26.8813 23.8747L23.7736 20.5877C23.2298 20.0125 23.5382 19.0635 24.3162 18.9178L28.7624 18.0852C29.0577 18.0299 29.3124 17.8448 29.4563 17.5811L31.6221 13.6098Z" fill="#FF7B31"/>
<path d="M52.25 13.75L54.8597 14.619C57.5822 15.5265 58.9435 15.9802 59.7217 17.061C60.5 18.1418 60.5 19.5772 60.5 22.4455V22.6462C60.5 25.0112 60.5 26.1965 59.9307 27.1645C59.3615 28.1325 58.3248 28.7072 56.2568 29.8595L48.125 34.375M13.75 13.75L11.1403 14.619C8.41775 15.5265 7.0565 15.9802 6.27825 17.061C5.5 18.1418 5.5 19.58 5.5 22.4455V22.6462C5.5 25.0112 5.5 26.1965 6.06925 27.1645C6.6385 28.1325 7.67525 28.7072 9.74325 29.8595L17.875 34.375M30.6515 16.5632C31.6965 14.685 32.219 13.75 33 13.75C33.781 13.75 34.3035 14.685 35.3485 16.5632L35.618 17.0472C35.915 17.5807 36.0635 17.8447 36.2945 18.0207C36.5282 18.1967 36.817 18.2628 37.3945 18.392L37.917 18.513C39.9465 18.9722 40.9612 19.2005 41.2032 19.976C41.4452 20.7542 40.7523 21.5627 39.369 23.1797L39.0115 23.5978C38.6182 24.057 38.4203 24.2853 38.3323 24.5713C38.2443 24.8573 38.2745 25.1625 38.3323 25.7758L38.3872 26.334C38.5962 28.4928 38.7007 29.5735 38.071 30.052C37.4385 30.5305 36.487 30.0932 34.5867 29.2188L34.0973 28.9933C33.5555 28.7458 33.286 28.622 33 28.622C32.714 28.622 32.4445 28.7458 31.9027 28.9933L31.4133 29.2188C29.513 30.096 28.5615 30.5305 27.929 30.052C27.2965 29.5735 27.4038 28.4928 27.6128 26.334L27.6677 25.7758C27.7255 25.1625 27.7557 24.8573 27.6677 24.5713C27.5797 24.288 27.3818 24.057 26.9885 23.5978L26.631 23.1797C25.2477 21.5627 24.5548 20.7542 24.7968 19.976C25.0388 19.2005 26.0535 18.9722 28.083 18.513L28.6055 18.392C29.183 18.2628 29.4718 18.1995 29.7055 18.0207C29.9365 17.8447 30.085 17.5807 30.382 17.0472L30.6515 16.5632Z" stroke="#1D1D1D" stroke-width="3"/>
<path d="M49.5 60.4999H16.5M46.75 6.75393C48.7877 7.14168 49.9977 7.57068 51.04 8.85768C52.3517 10.4692 52.283 12.2099 52.1427 15.6914C51.6477 28.2122 48.8427 43.9999 33.0027 43.9999C17.1627 43.9999 14.355 28.2149 13.8545 15.6914C13.717 12.2099 13.6482 10.4664 14.9545 8.85768C16.2635 7.24618 17.8282 6.98218 20.9605 6.45418C24.9401 5.80193 28.9673 5.48274 33 5.49993C34.9745 5.49993 36.8115 5.56868 38.5 5.68693" stroke="#1D1D1D" stroke-width="3" stroke-linecap="round"/>
</svg>
