<svg width="66" height="66" viewBox="0 0 66 66" fill="none" xmlns="http://www.w3.org/2000/svg">
<path d="M60 6.49993C57.6 2.49993 33.3333 13.1666 21.5 18.9999C18.5 18.9999 18.5 35.9999 19 40.4999C19.5 44.9999 38 47.4999 48.5 53.4999C59 59.4999 60 51.9999 60 47.4999C60 42.9999 63 11.4999 60 6.49993Z" fill="#88B7B7"/>
<path d="M6.73613 39.1972C3.44756 33.8646 5.09184 25.8658 9.47661 20H14.9575C19.3423 20 17.698 24.266 17.698 29.0653C17.698 33.8646 19.7405 38.8337 17 41.5C14.2595 44.1663 10.0247 44.5298 6.73613 39.1972Z" fill="#FF7B31"/>
<path d="M51.6072 7.10837L56.14 5.18927C58.3804 4.24071 60.9231 5.76801 60.9231 8.06232V53.5369C60.9231 56.0029 58.0234 57.5179 55.7385 56.2761C40.2625 47.8648 29.1835 44.2229 9.85275 42.7625C8.50281 42.6606 7.32737 41.8326 6.9162 40.6293C4.61918 33.9074 4.32123 29.237 6.8937 21.7384C7.31229 20.5182 8.52465 19.6951 9.8963 19.6217C21.7918 18.9848 26.5337 17.498 38.0711 12.6303M20.3149 18.941C17.5409 28.7664 17.4757 34.5136 20.3149 44.9727L16.0849 60.7495" stroke="black" stroke-width="4" stroke-linecap="round"/>
</svg>
