<svg width="44" height="45" viewBox="0 0 44 45" fill="none" xmlns="http://www.w3.org/2000/svg">
<path d="M23.8846 4.1665C25.9471 4.172 26.994 4.183 27.8978 4.20867L28.2535 4.2215C28.6641 4.23617 29.0693 4.2545 29.5588 4.2765C31.5095 4.36817 32.8405 4.67617 34.0083 5.129C35.2183 5.59467 36.2376 6.22534 37.257 7.24284C38.1892 8.15931 38.9106 9.26792 39.3708 10.4915C39.8237 11.6593 40.1316 12.9903 40.2233 14.9428C40.2453 15.4305 40.2636 15.8357 40.2783 16.2482L40.2893 16.6038C40.3168 17.5058 40.3278 18.5527 40.3315 20.6152L40.3333 21.9828V24.3845C40.3378 25.7217 40.3238 27.059 40.2911 28.3958L40.2802 28.7515C40.2655 29.164 40.2472 29.5692 40.2251 30.0568C40.1335 32.0093 39.8218 33.3385 39.3708 34.5082C38.9119 35.7324 38.1904 36.8413 37.257 37.7568C36.3402 38.6888 35.2317 39.41 34.0083 39.8707C32.8405 40.3235 31.5095 40.6315 29.5588 40.7232C29.1238 40.7437 28.6887 40.762 28.2535 40.7782L27.8978 40.7892C26.994 40.8148 25.9471 40.8277 23.8846 40.8313L22.517 40.8332H20.1171C18.7793 40.8378 17.4414 40.8237 16.104 40.791L15.7483 40.78C15.3131 40.7635 14.878 40.7446 14.443 40.7232C12.4923 40.6315 11.1613 40.3235 9.99165 39.8707C8.76821 39.4112 7.66004 38.6897 6.74481 37.7568C5.81173 36.8407 5.08972 35.732 4.62915 34.5082C4.17631 33.3403 3.86831 32.0093 3.77665 30.0568C3.75622 29.6218 3.73789 29.1867 3.72165 28.7515L3.71248 28.3958C3.6787 27.059 3.66342 25.7218 3.66665 24.3845V20.6152C3.66153 19.2779 3.67498 17.9407 3.70698 16.6038L3.71981 16.2482C3.73448 15.8357 3.75281 15.4305 3.77481 14.9428C3.86648 12.9903 4.17448 11.6612 4.62731 10.4915C5.08769 9.26666 5.81113 8.15771 6.74665 7.24284C7.66165 6.31054 8.76908 5.58915 9.99165 5.129C11.1613 4.67617 12.4905 4.36817 14.443 4.2765C14.9306 4.2545 15.3376 4.23617 15.7483 4.2215L16.104 4.2105C17.4408 4.17793 18.7781 4.16387 20.1153 4.16834L23.8846 4.1665ZM22 13.3332C19.5688 13.3332 17.2373 14.2989 15.5182 16.018C13.7991 17.7371 12.8333 20.0687 12.8333 22.4998C12.8333 24.931 13.7991 27.2626 15.5182 28.9816C17.2373 30.7007 19.5688 31.6665 22 31.6665C24.4311 31.6665 26.7627 30.7007 28.4818 28.9816C30.2009 27.2626 31.1666 24.931 31.1666 22.4998C31.1666 20.0687 30.2009 17.7371 28.4818 16.018C26.7627 14.2989 24.4311 13.3332 22 13.3332ZM22 16.9998C22.7222 16.9997 23.4375 17.1419 24.1048 17.4181C24.7721 17.6944 25.3785 18.0995 25.8893 18.6101C26.4001 19.1207 26.8054 19.727 27.0819 20.3942C27.3584 21.0615 27.5008 21.7766 27.5009 22.4989C27.501 23.2212 27.3589 23.9364 27.0826 24.6037C26.8063 25.2711 26.4013 25.8775 25.8906 26.3883C25.38 26.8991 24.7737 27.3043 24.1065 27.5808C23.4393 27.8573 22.7241 27.9997 22.0018 27.9998C20.5431 27.9998 19.1442 27.4204 18.1127 26.3889C17.0813 25.3575 16.5018 23.9585 16.5018 22.4998C16.5018 21.0411 17.0813 19.6422 18.1127 18.6107C19.1442 17.5793 20.5431 16.9998 22.0018 16.9998M31.6268 10.5832C31.019 10.5832 30.4361 10.8246 30.0064 11.2544C29.5766 11.6842 29.3351 12.267 29.3351 12.8748C29.3351 13.4826 29.5766 14.0655 30.0064 14.4953C30.4361 14.9251 31.019 15.1665 31.6268 15.1665C32.2346 15.1665 32.8175 14.9251 33.2473 14.4953C33.677 14.0655 33.9185 13.4826 33.9185 12.8748C33.9185 12.267 33.677 11.6842 33.2473 11.2544C32.8175 10.8246 32.2346 10.5832 31.6268 10.5832Z" fill="white"/>
</svg>
