<svg width="42" height="42" viewBox="0 0 42 42" fill="none" xmlns="http://www.w3.org/2000/svg">
<path fill-rule="evenodd" clip-rule="evenodd" d="M29.183 4.59896C23.6772 3.36822 17.9676 3.36822 12.4618 4.59896L11.8685 4.73021C10.3198 5.07646 8.89738 5.84528 7.75928 6.95125C6.62118 8.05721 5.81196 9.45704 5.42151 10.9952C4.02588 16.4946 4.02588 22.2555 5.42151 27.755C5.79387 29.2219 6.54747 30.5643 7.60592 31.6461C8.66436 32.728 9.99003 33.5107 11.4485 33.915L12.2623 38.773C12.2882 38.9272 12.3551 39.0717 12.4559 39.1913C12.5566 39.311 12.6877 39.4014 12.8353 39.4533C12.9829 39.5051 13.1416 39.5164 13.2951 39.486C13.4486 39.4556 13.5911 39.3846 13.7078 39.2805L18.487 35.0052C22.0747 35.2241 25.6753 34.9372 29.183 34.153L29.778 34.0217C31.3267 33.6755 32.7491 32.9066 33.8872 31.8007C35.0253 30.6947 35.8346 29.2949 36.225 27.7567C37.6205 22.2573 37.6205 16.4964 36.225 10.997C35.8344 9.45856 35.0249 8.05859 33.8865 6.9526C32.7481 5.84661 31.3253 5.07793 29.7763 4.73196L29.183 4.59896ZM13.9388 10.8535C13.6135 10.8061 13.2819 10.8716 12.999 11.039H12.9745C12.3183 11.424 11.7268 11.9087 11.2228 12.4792C10.8028 12.964 10.5753 13.454 10.5158 13.9265C10.4808 14.2065 10.5053 14.49 10.5875 14.7577L10.619 14.7752C11.0915 16.163 11.7075 17.4982 12.46 18.7547C13.4303 20.5196 14.6243 22.1518 16.0125 23.611L16.0545 23.6705L16.121 23.7195L16.1613 23.7667L16.2103 23.8087C17.6745 25.2011 19.3106 26.4008 21.0788 27.3787C23.1 28.4795 24.3268 28.9992 25.0635 29.2162V29.2267C25.2788 29.2932 25.4748 29.323 25.6725 29.323C26.3 29.2766 26.8938 29.0215 27.3595 28.5985C27.9283 28.0945 28.4095 27.5012 28.784 26.8415V26.8292C29.1358 26.1642 29.0168 25.5377 28.5093 25.1125C27.4899 24.2218 26.3876 23.4307 25.2175 22.75C24.4335 22.3247 23.6373 22.582 23.3153 23.0125L22.6275 23.8805C22.274 24.311 21.6335 24.2515 21.6335 24.2515L21.616 24.262C16.8368 23.0422 15.561 18.2035 15.561 18.2035C15.561 18.2035 15.5015 17.5455 15.9443 17.2095L16.8053 16.5165C17.2183 16.1805 17.5053 15.386 17.0625 14.602C16.3863 13.4308 15.5968 12.3288 14.7053 11.312C14.5108 11.0726 14.2381 10.9096 13.9353 10.8517L13.9388 10.8535ZM22.0133 8.74996C21.7812 8.74996 21.5586 8.84214 21.3945 9.00624C21.2304 9.17033 21.1383 9.39289 21.1383 9.62496C21.1383 9.85702 21.2304 10.0796 21.3945 10.2437C21.5586 10.4078 21.7812 10.5 22.0133 10.5C24.227 10.5 26.0645 11.2227 27.5188 12.6087C28.266 13.3665 28.8488 14.2642 29.2303 15.2477C29.6135 16.233 29.7885 17.2847 29.743 18.3382C29.7382 18.4531 29.756 18.5678 29.7955 18.6759C29.8351 18.7839 29.8955 18.883 29.9733 18.9677C30.1305 19.1387 30.3492 19.2402 30.5813 19.25C30.8133 19.2597 31.0398 19.1769 31.2107 19.0197C31.3817 18.8625 31.4833 18.6438 31.493 18.4117C31.5473 17.1158 31.3322 15.8227 30.8613 14.6142C30.3883 13.3999 29.6712 12.2957 28.7543 11.3697L28.7368 11.3522C26.9325 9.62846 24.6488 8.74996 22.0133 8.74996ZM21.9538 11.627C21.7217 11.627 21.4991 11.7191 21.335 11.8832C21.1709 12.0473 21.0788 12.2699 21.0788 12.502C21.0788 12.734 21.1709 12.9566 21.335 13.1207C21.4991 13.2848 21.7217 13.377 21.9538 13.377H21.9835C23.5795 13.4907 24.7415 14.0227 25.5553 14.896C26.39 15.7955 26.8223 16.9137 26.789 18.2962C26.7837 18.5283 26.8707 18.753 27.0311 18.9208C27.1914 19.0887 27.4118 19.186 27.6439 19.1913C27.8759 19.1967 28.1006 19.1096 28.2685 18.9493C28.4364 18.789 28.5337 18.5685 28.539 18.3365C28.581 16.5217 27.9965 14.9555 26.838 13.706V13.7025C25.6533 12.432 24.0275 11.76 22.071 11.6287L22.0413 11.6252L21.9538 11.627ZM21.9205 14.5582C21.8034 14.5479 21.6854 14.5612 21.5736 14.5975C21.4618 14.6338 21.3584 14.6922 21.2697 14.7693C21.181 14.8464 21.1087 14.9406 21.0571 15.0463C21.0056 15.1519 20.9759 15.2669 20.9698 15.3843C20.9637 15.5017 20.9813 15.6191 21.0215 15.7296C21.0618 15.84 21.1239 15.9412 21.2042 16.0271C21.2844 16.113 21.3811 16.1819 21.4886 16.2296C21.596 16.2773 21.712 16.3028 21.8295 16.3047C22.561 16.3432 23.0283 16.5637 23.3223 16.8595C23.618 17.157 23.8385 17.6347 23.8788 18.382C23.8809 18.4994 23.9067 18.6152 23.9546 18.7224C24.0025 18.8296 24.0715 18.9262 24.1574 19.0062C24.2434 19.0862 24.3446 19.1481 24.455 19.1882C24.5654 19.2282 24.6827 19.2457 24.8 19.2395C24.9173 19.2332 25.0321 19.2035 25.1376 19.1519C25.2432 19.1004 25.3372 19.0281 25.4142 18.9394C25.4913 18.8508 25.5496 18.7475 25.5859 18.6358C25.6221 18.5241 25.6355 18.4062 25.6253 18.2892C25.5693 17.2392 25.2403 16.3117 24.5665 15.6292C23.8893 14.9467 22.967 14.6142 21.9205 14.5582Z" fill="#88B7B7"/>
</svg>
