<svg width="968" height="830" viewBox="0 0 968 830" fill="none" xmlns="http://www.w3.org/2000/svg">
<path d="M965.678 449.788C962.117 392.339 952.437 336.337 930.964 282.673C911.27 233.685 882.787 188.26 846.849 149.516C811.022 110.993 768.075 79.2627 721.122 55.4368C671.054 30.0523 616.98 13.3519 561.682 4.44501C515.397 -3.01449 419.488 0.993627 418.376 1.77298C417.597 2.21832 397.792 31.7223 390.894 47.198C360.853 115.558 373.537 192.046 417.597 250.942C446.525 289.687 484.243 321.863 527.969 342.794C546.773 351.701 566.578 359.049 587.273 362.612C566.355 360.608 545.772 355.041 525.967 347.471C442.52 315.629 365.971 241.813 348.169 151.965C341.159 116.671 343.384 82.2687 355.401 48.4227C359.501 36.9624 350.086 24.543 338.095 26.8327C334.326 27.5523 330.562 28.2923 326.806 29.0502C263.498 41.9652 202.303 70.1331 151.79 110.548C85.1434 163.989 46.6465 242.37 24.6164 323.311C10.486 375.305 3.14268 428.857 0.806161 482.632C0.138584 499.667 -0.0839419 516.812 0.0273209 533.847C0.472372 552.774 1.47374 571.478 2.92015 590.071C8.59456 667.561 21.1673 745.496 41.8621 820.425C43.4567 826.01 48.5709 829.889 54.3977 829.889H92.8541C127.861 829.889 156.24 801.609 156.24 766.725V753.958C156.24 713.654 188.395 678.695 228.227 678.695C248.143 678.695 266.168 686.933 279.186 700.071C292.204 713.32 300.214 733.694 300.214 753.958V774.619C300.214 805.144 325.047 829.889 355.679 829.889C386.311 829.889 411.144 805.144 411.144 774.619V658.431C411.144 618.128 443.298 585.395 483.131 585.395C503.047 585.395 520.96 593.523 533.978 606.772C546.995 620.021 555.006 638.28 555.006 658.431V775.063C555.006 805.404 579.689 830 610.137 830C640.585 830 665.268 805.404 665.268 775.063V597.085C665.268 551.66 695.754 510.355 739.258 497.106C765.961 488.978 800.23 490.871 825.041 504.009C838.504 511.134 849.63 522.379 857.53 535.294C867.21 550.992 871.104 570.142 873.218 588.179C876.89 619.798 877.335 653.421 872.551 684.929C870.214 700.516 865.096 723.897 849.297 731.356C842.843 734.474 835.611 733.583 829.047 730.8C815.138 725.09 798.189 725.338 789.318 737.444L784.075 744.6C773.877 758.518 776.082 778.175 790.345 787.921C824.009 810.922 851.479 817.91 873.886 813.3C972.576 792.925 971.908 547.43 965.678 449.788ZM807.796 343.908C802.455 373.3 756.503 366.398 760.286 336.671C763.513 304.384 814.471 311.62 807.796 343.908Z" fill="#F9F9F9"/>
</svg>
