<svg width="1716" height="749" viewBox="0 0 1716 749" fill="none" xmlns="http://www.w3.org/2000/svg">
<path d="M355.191 60.9411C358.508 68.5099 357.56 77.8025 352.484 88.3746C347.413 98.939 338.328 110.531 325.85 122.435C300.908 146.229 262.736 170.954 217.236 190.891C171.736 210.829 127.683 222.132 93.282 224.341C76.073 225.446 61.3918 224.267 50.1871 220.835C38.9743 217.4 31.4996 211.798 28.1831 204.229C24.8666 196.66 25.8149 187.368 30.8901 176.796C35.9616 166.231 45.0468 154.639 57.5244 142.736C82.467 118.942 120.639 94.2159 166.139 74.2788C211.639 54.3416 255.692 43.0382 290.092 40.8293C307.302 39.7243 321.983 40.9029 333.187 44.3354C344.4 47.7704 351.875 53.3723 355.191 60.9411Z" stroke="#FFC177" stroke-width="4"/>
<path d="M1696.23 693.119C1694.33 699.521 1688.85 704.935 1679.73 709.027C1670.63 713.113 1658.26 715.697 1643.38 716.598C1613.65 718.398 1574.58 713.438 1533.29 701.187C1491.99 688.937 1456.54 671.79 1432.6 654.07C1420.62 645.201 1411.66 636.29 1406.26 627.9C1400.85 619.499 1399.21 611.973 1401.11 605.571C1403.01 599.17 1408.48 593.755 1417.6 589.663C1426.71 585.577 1439.08 582.993 1453.95 582.092C1483.68 580.292 1522.75 585.252 1564.05 597.503C1605.34 609.754 1640.8 626.9 1664.73 644.621C1676.71 653.489 1685.67 662.401 1691.08 670.791C1696.49 679.191 1698.13 686.717 1696.23 693.119Z" stroke="#FFC177" stroke-width="6"/>
<path d="M357.491 104.282C359.288 111.771 356.885 120.024 350.727 128.611C344.572 137.195 334.739 146.001 321.929 154.509C296.316 171.52 258.991 187.216 216.027 197.523C173.063 207.83 132.68 210.776 102.137 207.237C86.8615 205.466 74.103 202.08 64.7235 197.223C55.3407 192.364 49.455 186.1 47.6583 178.611C45.8617 171.122 48.2647 162.869 54.4219 154.282C60.577 145.698 70.4105 136.892 83.2205 128.384C108.833 111.373 146.158 95.6772 189.122 85.3702C232.086 75.0632 272.469 72.1168 303.012 75.6562C318.288 77.4264 331.046 80.8128 340.426 85.6698C349.809 90.5286 355.694 96.7929 357.491 104.282Z" stroke="#FFC177" stroke-width="2"/>
<path d="M1665.61 675.083C1662.86 681.197 1656.8 685.613 1647.93 688.255C1639.07 690.896 1627.54 691.721 1614.1 690.742C1587.22 688.783 1552.92 679.626 1517.6 663.703C1482.28 647.779 1452.71 628.141 1433.44 609.295C1423.8 599.868 1416.79 590.68 1412.9 582.292C1409.01 573.902 1408.3 566.436 1411.06 560.322C1413.82 554.209 1419.88 549.793 1428.74 547.151C1437.6 544.51 1449.13 543.685 1462.58 544.664C1489.46 546.623 1523.76 555.78 1559.08 571.703C1594.4 587.627 1623.97 607.265 1643.24 626.111C1652.87 635.537 1659.89 644.726 1663.78 653.113C1667.67 661.504 1668.37 668.97 1665.61 675.083Z" stroke="#FFC177" stroke-width="2"/>
</svg>
