<svg width="89" height="36" viewBox="0 0 89 36" fill="none" xmlns="http://www.w3.org/2000/svg">
<path d="M47.9167 1.03213C39.3876 2.19271 31.4231 4.56115 23.6065 8.56438C16.6241 12.1404 8.8624 16.6981 3.46879 23.2208C1.78849 25.2529 0.260115 28.5642 2.01681 31.4653C4.066 34.8495 9.1958 34.6777 11.952 34.6885C23.211 34.7325 34.5135 32.6577 45.4477 30.3148C56.7297 27.8973 68.1741 25.0841 79.0654 21.041C80.6237 20.4626 89.8861 17.9947 87.9723 13.3169C86.1012 8.74332 80.1637 7.45783 76.6974 7.04769C65.6311 5.73832 54.2515 7.6998 43.5192 9.75221C32.735 11.8146 21.7993 14.4791 11.7688 19.4141C8.32165 21.11 3.78352 23.5828 1.71698 27.5883C0.206649 30.5157 4.22131 32.0502 5.83978 32.5191C12.3978 34.4188 19.6555 33.6029 26.1568 32.9785C35.4526 32.0857 44.6868 30.3255 53.2317 26.1404C60.9482 22.3611 68.5395 16.9934 74.5927 10.1725C76.5318 7.98747 77.8524 5.77326 78.9484 2.94443" stroke="#FFC177" stroke-linecap="round"/>
</svg>
