<svg width="144" height="57" viewBox="0 0 144 57" fill="none" xmlns="http://www.w3.org/2000/svg">
<path d="M77.5513 0.855075C63.6169 2.75117 50.6049 6.62061 37.8345 13.1609C26.427 19.0032 13.7464 26.4494 4.93462 37.1058C2.18944 40.4257 -0.307543 45.8355 2.56246 50.5753C5.91031 56.1042 14.2911 55.8235 18.794 55.8411C37.1884 55.9129 55.6538 52.5234 73.5175 48.6956C91.9495 44.746 110.647 40.15 128.44 33.5446C130.986 32.5995 146.119 28.5677 142.992 20.9253C139.935 13.4532 130.235 11.353 124.572 10.683C106.492 8.54381 87.9007 11.7484 70.3669 15.1015C52.7482 18.4708 34.8821 22.8241 18.4948 30.8865C12.863 33.6573 5.44882 37.6973 2.07261 44.2411C-0.394893 49.0237 6.16404 51.5308 8.80823 52.2968C19.5224 55.4005 31.3797 54.0676 42.0011 53.0475C57.188 51.5889 72.2745 48.7131 86.2347 41.8757C98.8414 35.7012 111.244 26.9317 121.133 15.7881C124.301 12.2183 126.459 8.60089 128.249 3.9793" stroke="#FFC177" stroke-linecap="round"/>
</svg>
