<svg width="308" height="264" viewBox="0 0 308 264" fill="none" xmlns="http://www.w3.org/2000/svg">
<path opacity="0.5" d="M0.738983 143.065C1.87183 124.792 4.95181 106.979 11.7844 89.9105C18.0505 74.3289 27.1133 59.8804 38.5481 47.5568C49.9475 35.3039 63.6126 25.2113 78.5522 17.6329C94.483 9.55879 111.688 4.24686 129.283 1.41384C144.01 -0.958825 174.526 0.316045 174.881 0.563935C175.128 0.705586 181.43 10.09 183.625 15.0124C193.183 36.7558 189.147 61.0845 175.128 79.8178C165.924 92.1415 153.923 102.376 140.01 109.033C134.027 111.866 127.725 114.204 121.141 115.337C127.796 114.699 134.345 112.929 140.647 110.521C167.198 100.393 191.555 76.914 197.219 48.3358C199.449 37.11 198.741 26.1674 194.918 15.4019C193.613 11.7567 196.609 7.80645 200.424 8.53475C201.623 8.76362 202.821 8.99899 204.016 9.24007C224.16 13.348 243.631 22.3074 259.703 35.1623C280.909 52.1604 293.158 77.0911 300.168 102.836C304.664 119.374 307 136.408 307.743 153.512C307.956 158.93 308.027 164.384 307.991 169.802C307.85 175.822 307.531 181.771 307.071 187.685C305.265 212.333 301.265 237.122 294.68 260.954C294.173 262.731 292.546 263.965 290.692 263.965H278.456C267.317 263.965 258.287 254.97 258.287 243.874V239.813C258.287 226.994 248.056 215.874 235.382 215.874C229.045 215.874 223.31 218.495 219.168 222.673C215.026 226.887 212.477 233.368 212.477 239.813V246.385C212.477 256.094 204.576 263.965 194.829 263.965C185.083 263.965 177.182 256.094 177.182 246.385V209.429C177.182 196.609 166.951 186.198 154.277 186.198C147.94 186.198 142.24 188.783 138.098 192.997C133.956 197.211 131.407 203.019 131.407 209.429V246.526C131.407 256.177 123.553 264 113.865 264C104.178 264 96.3239 256.177 96.3239 246.526V189.916C96.3239 175.468 86.6238 162.33 72.7817 158.116C64.2852 155.53 53.3815 156.132 45.4869 160.311C41.2032 162.578 37.6631 166.154 35.1495 170.262C32.0696 175.255 30.8305 181.346 30.1579 187.083C28.9896 197.141 28.848 207.835 30.3703 217.857C31.1137 222.815 32.7422 230.252 37.7693 232.624C39.8226 233.616 42.1237 233.332 44.2124 232.447C48.6378 230.631 54.0309 230.71 56.8533 234.56L58.5215 236.837C61.7665 241.264 61.065 247.516 56.5265 250.616C45.8152 257.932 37.075 260.155 29.9455 258.688C-1.4559 252.208 -1.24353 174.122 0.738983 143.065ZM50.9742 109.388C52.6734 118.737 67.2944 116.541 66.0907 107.086C65.0641 96.816 48.85 99.1178 50.9742 109.388Z" fill="#FFC177"/>
</svg>
